<?xml version="1.0" encoding="UTF-8" standalone="no" ?>
<!DOCTYPE svg PUBLIC "-//W3C//DTD SVG 1.1//EN" "http://www.w3.org/Graphics/SVG/1.1/DTD/svg11.dtd">
<svg xmlns="http://www.w3.org/2000/svg" xmlns:xlink="http://www.w3.org/1999/xlink" version="1.1" width="240" height="240" viewBox="0 0 240 240" xml:space="preserve">
<desc>Created with Fabric.js 5.2.4</desc>
<defs>
</defs>
<g transform="matrix(1 0 0 1 120 120)" id="810dd48b-5c61-40ee-a683-94f88653ddb2"  >
<rect style="stroke: none; stroke-width: 1; stroke-dasharray: none; stroke-linecap: butt; stroke-dashoffset: 0; stroke-linejoin: miter; stroke-miterlimit: 4; fill: rgb(255,255,255); fill-rule: nonzero; opacity: 1; visibility: hidden;" vector-effect="non-scaling-stroke"  x="-120" y="-120" rx="0" ry="0" width="240" height="240" />
</g>
<g transform="matrix(Infinity NaN NaN Infinity 0 0)" id="56a4a137-a6a2-4dc3-8c8c-67ad82f8583f"  >
</g>
<g transform="matrix(1 0 0 1 120 120)"  >
<path style="stroke: none; stroke-width: 1; stroke-dasharray: none; stroke-linecap: butt; stroke-dashoffset: 0; stroke-linejoin: miter; stroke-miterlimit: 4; fill: rgb(24,188,242); fill-rule: nonzero; opacity: 1;" vector-effect="non-scaling-stroke"  transform=" translate(-120, -122.88)" d="M 240 224.762 C 240 233.012 233.25 239.762 225 239.762 L 15 239.762 C 6.75 239.762 0 233.012 0 224.762 L 0 134.762 C 0 126.512 4.77 114.993 10.61 109.153 L 109.39 10.3725 C 115.22 4.5425 124.77 4.5425 130.6 10.3725 L 229.39 109.162 C 235.22 114.992 240 126.522 240 134.772 L 240 224.772 L 240 224.762 Z" stroke-linecap="round" />
</g>
<g transform="matrix(NaN NaN NaN NaN 0 0)"  >
<g style=""   >
</g>
</g>
<g transform="matrix(NaN NaN NaN NaN 0 0)"  >
<g style=""   >
</g>
</g>
<g transform="matrix(7.09 0 0 7.09 120 131)" id="944ca3b6-8b25-4c5f-849e-270cd09f985c"  >
<path style="stroke: rgb(0,0,0); stroke-width: 0; stroke-dasharray: none; stroke-linecap: butt; stroke-dashoffset: 0; stroke-linejoin: miter; stroke-miterlimit: 4; fill: rgb(255,255,255); fill-rule: nonzero; opacity: 1;" vector-effect="non-scaling-stroke"  transform=" translate(-12, -12)" d="M 14.943 14.596 C 15.036999999999999 14.596 15.243 14.691 15.519 15.058 C 16.27674461013752 16.11004138401501 16.99882105274636 17.18731940231826 17.68400000000001 18.288000000000007 C 16.057000000000002 18.934 14.089 19.298000000000002 12 19.298000000000002 C 11.012 19.298000000000002 10.052 19.201 9.144 19.038 C 10.561 17.531 12.062000000000001 16.182000000000002 13.847000000000001 15.058 C 14.402000000000001 14.78 14.666 14.596 14.943000000000001 14.596 z M 17.367 8.394 C 20.225 9.449 22.155 11.3 22.155 13.392 C 22.155 14.806999999999999 21.274 16.122 19.817 17.147 C 19.432 14.886999999999999 18.919 12.669999999999998 18.173000000000002 10.530999999999999 C 17.92474317748404 9.811204541197647 17.655292496026384 9.098894323878906 17.364999999999988 8.394999999999975 z M 7.73 8.077 C 7.316079901351823 9.156201644335143 6.95038490768254 10.253286625342987 6.633999999999997 11.365000000000009 C 6.068083460416327 13.472181726796915 5.6250043737153606 15.61044734189343 5.307000000000009 17.769000000000034 C 3.1970000000000005 16.668999999999997 1.8450000000000002 15.078999999999999 1.8450000000000002 13.383999999999999 C 1.846 11.11 4.285 9.046999999999999 7.73 8.076999999999998 z M 12.463 0.086 C 12.367999999999999 0.086 12.383 0.07899999999999999 12.289 0.172 C 10.8182910475485 1.9249435484482984 9.586553073459651 3.865191462860709 8.625999999999992 5.9420000000000135 C 3.631 6.89 0 9.887 0 13.385 C 0 15.972999999999999 1.991 18.288 5.048 19.701999999999998 C 4.890870369854494 21.03475433930286 4.775147979977222 22.372064954311004 4.700999999999992 23.712 C 4.7010000000000005 23.805999999999997 4.809 23.913999999999998 4.904000000000001 23.913999999999998 L 4.990000000000001 23.913999999999998 C 5.084000000000001 23.913999999999998 5.070000000000001 23.921 5.163000000000001 23.828 C 5.981503732250992 22.738831063343568 6.827781459676563 21.670813899850994 7.700999999999984 20.625000000000004 C 9.039000000000001 20.961 10.481 21.145 12 21.145 C 14.455 21.145 16.738 20.665 18.634999999999998 19.847 C 19.095 20.619 19.543 21.402 20.02 22.242 C 20.02 22.336000000000002 20.214 22.328 20.308 22.328 C 20.40309401640618 22.3269192818981 20.4799192818981 22.25009401640618 20.480999999999998 22.155 C 20.388671683684297 21.123219020271584 20.273309582022637 20.09362893376517 20.13500000000001 19.06700000000003 C 22.503999999999998 17.647 24 15.617 24 13.385 C 24 10.133 20.844 7.313 16.384999999999998 6.173 C 15.350134712056784 4.046326496353505 14.093136337774546 2.0351290975019225 12.635000000000005 0.17300000000000715 C 12.634999999999998 0.07900000000000004 12.556999999999999 0.08600000000000005 12.462999999999997 0.08600000000000005 z" stroke-linecap="round" />
</g>
</svg>