<svg xmlns="http://www.w3.org/2000/svg" viewBox="0 0 800 400" style="background-color: #1c1c1c; font-family: sans-serif;">
    <rect x="0" y="0" width="800" height="400" fill="#1c1c1c" />
    <line x1="50" y1="360" x2="750" y2="360" stroke="#444" stroke-width="2" />
    <line x1="50" y1="40" x2="50" y2="360" stroke="#444" stroke-width="2" />
    <text x="50" y="25" fill="#aaa" font-size="16">528W</text>
    <text x="750" y="390" fill="#aaa" font-size="16" text-anchor="middle">2759s</text>
    <text x="400.0" y="25" fill="#fff" font-size="20" text-anchor="middle" font-weight="bold">Recording Preview</text>
    <polyline points="50.0,347.3 83.0,352.7 85.5,347.9 88.0,356.4 93.1,355.8 98.2,356.4 103.2,345.5 108.3,352.1 110.9,352.7 113.4,347.9 115.9,347.3 118.5,348.5 121.0,328.5 123.5,335.8 126.1,356.4 128.6,309.1 131.2,346.1 133.7,343.0 136.2,344.9 138.8,347.9 143.8,338.8 146.4,347.9 148.9,352.1 151.4,346.1 154.0,279.4 156.5,284.3 159.0,350.3 161.6,342.4 164.1,208.5 166.7,346.7 169.2,227.9 171.7,356.4 174.3,188.5 176.8,356.4 179.3,212.8 181.9,215.8 184.4,348.5 186.9,194.0 189.5,354.5 192.0,217.6 194.6,356.4 197.1,183.1 199.6,217.6 202.2,220.0 204.7,181.9 207.2,181.3 209.8,219.4 212.3,176.4 214.9,226.1 217.4,184.9 219.9,196.4 222.5,241.2 225.0,164.9 227.5,356.4 230.1,201.9 232.6,209.7 235.1,194.0 237.7,356.4 240.2,225.5 242.7,223.1 245.3,249.1 247.8,356.4 250.3,214.6 252.9,345.5 255.4,224.3 258.0,352.1 260.5,356.4 263.0,178.2 265.6,168.5 268.1,352.1 270.6,326.1 273.2,207.3 275.7,187.3 278.3,356.4 283.3,196.4 285.9,161.3 288.4,172.8 290.9,356.4 293.5,137.6 296.0,177.6 298.6,211.0 301.1,356.4 303.6,141.9 306.2,352.1 308.7,155.8 311.2,356.4 313.8,240.0 316.3,356.4 318.8,352.1 321.4,356.4 326.4,177.0 329.0,223.7 331.5,356.4 334.0,310.3 336.6,355.2 339.1,356.4 341.7,217.6 344.2,97.0 346.7,356.4 349.3,122.5 351.8,356.4 354.3,91.6 356.9,158.8 359.4,356.4 361.9,350.3 364.5,356.4 369.6,167.3 372.1,356.4 374.6,134.6 377.2,356.4 379.7,160.1 382.3,356.4 384.8,134.6 387.3,356.4 389.9,345.5 392.4,141.9 394.9,356.4 397.5,127.9 400.0,356.4 402.5,137.6 405.1,356.4 407.6,85.5 410.1,356.4 412.7,352.1 415.2,356.4 420.3,151.0 422.8,356.4 425.3,108.0 427.9,356.4 430.4,178.2 433.0,356.4 435.5,107.3 438.0,356.4 440.6,125.5 443.1,356.4 453.3,355.8 455.8,341.8 458.3,339.4 460.9,355.2 463.4,356.4 465.9,352.1 468.5,337.6 471.0,347.9 473.6,345.5 476.1,349.7 478.6,346.7 481.2,351.5 483.7,337.6 486.2,327.3 488.8,321.2 491.3,328.5 493.8,338.2 496.4,332.1 498.9,284.3 501.4,256.4 504.0,292.1 506.5,223.1 509.0,244.3 511.9,143.7 514.1,249.1 516.7,239.4 519.2,232.2 521.7,238.2 524.3,102.5 526.8,55.2 529.3,359.4 531.9,360.0 536.9,348.5 539.5,350.9 542.0,350.3 544.6,356.4 547.1,353.9 552.2,356.4 554.7,352.7 557.3,331.5 559.8,336.4 562.3,307.3 564.9,341.2 567.4,350.3 569.9,240.6 572.5,341.8 575.0,350.3 577.5,303.7 580.1,356.4 582.6,144.3 585.1,356.4 592.7,166.7 595.3,350.9 597.8,152.2 600.4,130.4 602.9,356.4 605.4,184.9 608.0,356.4 615.6,353.9 618.1,326.7 620.6,343.6 623.2,343.0 625.7,355.8 628.3,348.5 630.8,253.4 633.3,341.8 635.9,340.0 638.4,344.2 640.9,340.6 643.5,348.5 646.0,346.1 648.6,345.5 651.1,330.3 653.6,345.5 656.2,323.6 658.7,331.5 661.2,326.7 663.8,269.7 666.3,244.3 668.8,283.7 671.4,198.8 673.9,274.0 676.4,275.2 679.0,278.2 681.5,278.8 684.0,277.6 686.6,280.0 689.1,160.1 691.7,246.7 694.2,252.2 696.7,247.9 699.3,139.5 701.8,227.3 704.3,222.5 706.9,223.7 709.4,360.0 714.5,327.3 717.0,350.3 719.6,330.9 722.1,344.2 724.6,334.6 727.2,343.0 729.7,335.8 732.2,349.7 734.8,351.5 737.3,343.6 739.9,350.3 742.4,344.9 744.9,355.2 747.7,356.4 750.0,360.0" stroke="#e6194b" stroke-width="2" stroke-opacity="0.5" fill="none" /><polyline points="83.0,352.7 85.5,347.9 88.0,356.4 93.1,355.8 98.2,356.4 103.2,345.5 108.3,352.1 110.9,352.7 113.4,347.9 115.9,347.3 118.5,348.5 121.0,328.5 123.5,335.8 126.1,356.4 128.6,309.1 131.2,346.1 133.7,343.0 136.2,344.9 138.8,347.9 143.8,338.8 146.4,347.9 148.9,352.1 151.4,346.1 154.0,279.4 156.5,284.3 159.0,350.3 161.6,342.4 164.1,208.5 166.7,346.7 169.2,227.9 171.7,356.4 174.3,188.5 176.8,356.4 179.3,212.8 181.9,215.8 184.4,348.5 186.9,194.0 189.5,354.5 192.0,217.6 194.6,356.4 197.1,183.1 199.6,217.6 202.2,220.0 204.7,181.9 207.2,181.3 209.8,219.4 212.3,176.4 214.9,226.1 217.4,184.9 219.9,196.4 222.5,241.2 225.0,164.9 227.5,356.4 230.1,201.9 232.6,209.7 235.1,194.0 237.7,356.4 240.2,225.5 242.7,223.1 245.3,249.1 247.8,356.4 250.3,214.6 252.9,345.5 255.4,224.3 258.0,352.1 260.5,356.4 263.0,178.2 265.6,168.5 268.1,352.1 270.6,326.1 273.2,207.3 275.7,187.3 278.3,356.4 283.3,196.4 285.9,161.3 288.4,172.8 290.9,356.4 293.5,137.6 296.0,177.6 298.6,211.0 301.1,356.4 303.6,141.9 306.2,352.1 308.7,155.8 311.2,356.4 313.8,240.0 316.3,356.4 318.8,352.1 321.4,356.4 326.4,177.0 329.0,223.7 331.5,356.4 334.0,310.3 336.6,355.2 339.1,356.4 341.7,217.6 344.2,97.0 346.7,356.4 349.3,122.5 351.8,356.4 354.3,91.6 356.9,158.8 359.4,356.4 361.9,350.3 364.5,356.4 369.6,167.3 372.1,356.4 374.6,134.6 377.2,356.4 379.7,160.1 382.3,356.4 384.8,134.6 387.3,356.4 389.9,345.5 392.4,141.9 394.9,356.4 397.5,127.9 400.0,356.4 402.5,137.6 405.1,356.4 407.6,85.5 410.1,356.4 412.7,352.1 415.2,356.4 420.3,151.0 422.8,356.4 425.3,108.0 427.9,356.4 430.4,178.2 433.0,356.4 435.5,107.3 438.0,356.4 440.6,125.5 443.1,356.4 453.3,355.8 455.8,341.8 458.3,339.4 460.9,355.2 463.4,356.4 465.9,352.1 468.5,337.6 471.0,347.9 473.6,345.5 476.1,349.7 478.6,346.7 481.2,351.5 483.7,337.6 486.2,327.3 488.8,321.2 491.3,328.5 493.8,338.2 496.4,332.1 498.9,284.3 501.4,256.4 504.0,292.1 506.5,223.1 509.0,244.3 511.9,143.7 514.1,249.1 516.7,239.4 519.2,232.2 521.7,238.2 524.3,102.5 526.8,55.2 529.3,359.4 531.9,360.0 536.9,348.5 539.5,350.9 542.0,350.3 544.6,356.4 547.1,353.9 552.2,356.4 554.7,352.7 557.3,331.5 559.8,336.4 562.3,307.3 564.9,341.2 567.4,350.3 569.9,240.6 572.5,341.8 575.0,350.3 577.5,303.7 580.1,356.4 582.6,144.3 585.1,356.4 592.7,166.7 595.3,350.9 597.8,152.2 600.4,130.4 602.9,356.4 605.4,184.9 608.0,356.4 615.6,353.9 618.1,326.7 620.6,343.6 623.2,343.0 625.7,355.8 628.3,348.5 630.8,253.4 633.3,341.8 635.9,340.0 638.4,344.2 640.9,340.6 643.5,348.5 646.0,346.1 648.6,345.5 651.1,330.3 653.6,345.5 656.2,323.6 658.7,331.5 661.2,326.7 663.8,269.7 666.3,244.3 668.8,283.7 671.4,198.8 673.9,274.0 676.4,275.2 679.0,278.2 681.5,278.8 684.0,277.6 686.6,280.0 689.1,160.1 691.7,246.7 694.2,252.2 696.7,247.9 699.3,139.5 701.8,227.3 704.3,222.5 706.9,223.7 709.4,360.0 714.5,327.3 717.0,350.3 719.6,330.9 722.1,344.2 724.6,334.6 727.2,343.0 729.7,335.8 732.2,349.7 734.8,351.5 737.3,343.6 739.9,350.3 742.4,344.9 744.9,355.2 747.7,356.4 750.0,360.0" stroke="#4363d8" stroke-width="2" stroke-opacity="1.0" fill="none" /><line x1="72.9" y1="40" x2="72.9" y2="360" stroke="#e6194b" stroke-dasharray="4" stroke-width="1" /><text x="72.9" y="375" fill="#e6194b" font-size="12" text-anchor="middle">Trim Start</text><line x1="750.0" y1="40" x2="750.0" y2="360" stroke="#e6194b" stroke-dasharray="4" stroke-width="1" /><text x="750.0" y="375" fill="#e6194b" font-size="12" text-anchor="middle">Trim End</text></svg>