<svg xmlns="http://www.w3.org/2000/svg" viewBox="0 0 800 400" style="background-color: #1c1c1c; font-family: sans-serif;">
    <rect x="0" y="0" width="800" height="400" fill="#1c1c1c" />
    <line x1="50" y1="360" x2="750" y2="360" stroke="#444" stroke-width="2" />
    <line x1="50" y1="40" x2="50" y2="360" stroke="#444" stroke-width="2" />
    <text x="50" y="25" fill="#aaa" font-size="16">1260W</text>
    <text x="750" y="390" fill="#aaa" font-size="16" text-anchor="middle">8660s</text>
    <text x="400.0" y="25" fill="#fff" font-size="20" text-anchor="middle" font-weight="bold">Recording Preview</text>
    <polyline points="50.0,358.2 50.8,354.2 51.6,353.1 52.4,354.7 53.2,348.3 54.0,273.4 54.9,338.7 55.7,315.0 56.5,67.4 57.3,55.2 58.1,76.8 58.9,80.1 59.7,81.7 60.5,84.7 61.3,85.2 62.1,83.9 62.9,84.7 63.7,87.5 64.6,83.9 65.4,86.2 66.2,88.3 67.0,89.8 67.8,89.0 70.2,89.8 71.0,91.8 71.8,89.8 72.6,90.5 73.4,91.0 74.3,91.3 75.1,93.3 75.9,89.8 76.7,94.1 77.5,93.3 78.3,94.6 79.1,93.3 79.9,96.6 80.7,98.2 81.5,97.4 82.3,100.7 83.1,91.3 84.0,97.4 84.8,98.2 85.6,102.0 87.2,98.2 88.0,97.4 88.8,101.5 89.6,102.7 90.4,98.2 92.0,103.2 92.8,104.0 93.6,100.2 94.5,101.0 95.3,105.3 96.1,105.8 96.9,101.5 97.7,100.2 98.5,107.8 99.3,106.5 100.1,102.2 100.9,104.0 101.7,107.3 102.5,106.5 103.4,102.7 104.2,107.3 105.0,108.3 105.8,109.1 106.6,102.2 107.4,107.8 108.2,108.8 109.0,110.9 109.8,103.7 110.6,109.6 111.4,110.9 113.0,105.5 113.9,111.4 114.7,112.6 115.5,113.9 116.3,107.0 117.1,111.9 118.7,114.4 119.5,107.0 120.3,110.9 121.1,113.1 121.9,115.7 122.7,107.8 123.6,112.1 124.4,115.2 125.2,107.8 126.0,109.1 126.8,112.1 127.6,115.7 128.4,109.1 129.2,111.6 130.0,113.9 130.8,115.7 131.6,113.1 132.4,112.1 133.3,115.7 134.1,116.2 135.7,113.1 136.5,112.6 137.3,118.5 138.1,116.7 138.9,116.2 139.7,113.9 140.5,118.0 141.3,117.5 142.1,114.4 143.0,113.9 143.8,118.0 144.6,119.0 145.4,116.2 146.2,114.4 147.0,119.0 147.8,118.5 148.7,113.1 149.4,116.2 150.2,119.0 151.0,120.3 151.9,116.2 152.7,115.2 153.5,120.3 155.1,113.1 155.9,116.7 156.7,121.3 157.5,121.8 158.3,113.1 159.1,117.7 159.9,121.3 160.7,122.3 161.5,114.7 162.4,120.8 163.2,122.5 164.0,121.8 164.8,114.4 165.6,121.3 166.4,123.0 167.2,122.8 168.0,116.2 168.8,121.8 169.6,122.5 170.4,208.9 171.3,195.7 172.1,198.2 172.9,101.0 173.7,120.8 174.5,122.8 175.3,117.5 176.1,122.8 176.9,124.6 177.7,125.1 178.5,117.2 179.3,123.6 180.1,125.8 181.0,210.2 181.8,196.4 182.6,201.5 183.4,203.0 184.2,202.8 185.0,193.9 185.8,200.0 186.6,201.0 187.4,202.5 188.2,192.9 189.0,199.0 189.8,200.5 190.7,202.5 191.6,192.6 192.3,198.2 193.1,199.2 193.9,202.5 194.7,195.2 195.7,198.2 196.4,199.7 197.4,203.0 199.1,194.7 199.1,198.5 202.9,202.3 203.6,203.8 204.4,197.7 205.2,86.2 206.0,121.8 207.2,126.6 207.6,119.5 208.4,123.3 209.2,126.6 210.0,127.1 210.9,126.1 211.7,122.8 212.5,126.6 213.3,128.9 214.1,212.7 214.9,205.6 215.7,201.5 216.5,205.1 217.3,204.6 218.1,200.5 218.9,201.3 219.7,204.1 220.6,204.3 221.4,201.5 222.2,199.5 223.0,204.8 223.8,204.3 224.6,201.5 225.4,201.3 226.2,204.8 227.0,204.3 227.8,201.5 228.6,200.0 229.4,204.6 230.3,204.3 231.1,200.0 231.9,202.0 232.7,204.6 233.5,205.3 234.3,199.7 235.1,201.3 235.9,205.3 236.7,205.1 237.5,199.2 238.3,77.3 239.1,123.3 240.0,129.4 240.8,123.3 241.6,128.6 242.4,132.7 243.2,131.2 244.0,123.8 244.8,216.0 245.6,211.4 246.4,208.1 247.2,199.2 248.0,204.8 248.8,205.3 249.7,205.6 250.5,198.7 251.3,203.3 252.1,203.8 252.9,207.1 253.7,198.5 254.5,203.8 255.3,202.8 256.1,207.1 256.9,198.0 257.7,203.3 258.5,201.8 259.4,206.9 260.2,192.4 261.0,201.5 261.8,205.1 262.6,206.6 263.4,199.2 264.2,202.3 265.0,203.0 265.8,206.1 266.6,200.5 267.4,201.8 268.2,205.3 269.1,207.1 269.9,200.0 270.7,201.3 271.5,205.8 272.3,207.6 273.1,197.5 273.9,202.0 274.7,205.3 275.5,206.6 276.3,201.3 277.1,203.0 277.9,205.6 278.8,206.9 279.6,205.6 280.4,204.3 281.2,203.3 282.0,207.6 283.6,205.3 284.4,204.1 285.2,207.4 286.0,207.9 286.8,205.3 287.6,203.3 288.5,207.6 290.1,204.3 290.9,203.0 291.7,208.6 292.5,208.1 293.3,204.1 294.1,205.1 294.9,208.1 295.7,208.4 296.5,203.8 297.3,204.1 298.2,208.4 299.0,207.9 299.8,203.0 300.6,204.3 301.4,207.6 303.0,202.0 303.8,205.3 304.6,207.6 306.2,201.3 307.0,205.3 307.9,207.6 309.5,201.0 310.3,207.1 311.1,207.4 311.9,208.1 312.7,199.7 313.5,206.3 314.3,207.6 315.1,208.1 315.9,200.3 316.7,205.8 317.6,206.6 318.4,208.6 319.2,200.3 320.0,205.6 320.8,204.8 321.6,208.6 322.4,198.7 323.2,204.3 324.0,205.8 324.8,208.6 325.6,200.8 326.4,203.6 327.3,204.8 328.1,208.6 328.9,201.0 329.7,203.3 330.5,206.3 331.3,208.6 332.1,202.5 333.7,206.1 334.5,208.4 335.3,202.8 336.1,203.6 337.0,205.6 337.8,208.4 338.6,203.0 340.2,205.6 341.0,208.4 341.8,201.5 342.6,205.3 343.4,207.6 344.2,208.1 345.0,201.5 345.8,207.1 346.7,207.9 347.5,207.4 348.3,201.0 349.1,207.1 349.9,207.6 350.7,208.1 351.5,199.5 352.3,206.9 353.1,208.1 353.9,208.4 354.7,200.3 355.5,206.3 356.4,207.6 357.2,208.4 358.0,199.5 358.8,206.9 359.6,206.6 360.4,208.4 361.2,200.3 362.0,205.1 362.8,205.3 363.6,208.6 364.4,197.7 365.2,205.1 366.1,204.3 366.9,208.1 367.7,198.2 368.5,202.8 369.3,204.8 370.1,208.6 370.9,201.5 371.7,203.0 372.5,206.6 373.3,208.6 374.1,203.3 374.9,202.5 375.8,206.6 376.6,208.4 377.4,203.8 378.2,203.3 379.0,207.1 379.8,208.4 380.6,201.8 381.4,203.8 382.2,206.9 383.0,208.1 383.8,204.1 384.6,205.1 385.5,206.3 386.3,208.4 387.1,207.4 387.9,205.6 389.5,208.4 390.3,206.6 391.1,204.8 391.9,205.1 392.8,208.4 393.5,207.9 394.3,204.6 395.2,203.6 396.0,208.4 396.8,207.9 397.6,204.3 398.4,204.1 399.2,208.1 400.0,207.9 400.8,204.8 401.6,204.3 402.4,207.9 403.2,208.4 404.0,202.5 404.9,204.8 405.7,208.4 407.3,203.0 408.1,205.3 408.9,208.6 409.7,207.6 410.5,201.0 411.3,205.1 412.1,207.6 412.9,208.4 413.7,200.3 414.6,205.8 415.4,207.9 416.2,208.1 417.0,200.0 417.8,206.3 418.6,207.1 419.4,207.4 420.2,200.0 421.0,204.8 421.8,205.8 422.6,207.9 423.4,199.2 424.3,204.1 425.1,205.8 425.9,207.6 426.7,200.3 427.5,205.6 428.3,203.3 429.1,207.9 429.9,197.7 430.7,203.0 431.5,203.8 432.3,207.9 433.1,199.7 434.0,203.0 434.8,205.3 435.6,208.1 436.4,202.0 437.2,201.8 438.0,205.1 438.8,207.6 439.6,202.5 441.2,205.8 442.0,207.1 442.8,203.0 443.7,202.0 444.5,205.8 445.3,207.4 446.1,203.3 446.9,203.8 447.7,206.9 448.5,207.6 449.3,203.0 450.1,204.3 450.9,205.1 451.7,207.1 452.5,202.8 453.4,204.6 454.2,204.1 455.0,207.1 455.8,205.8 456.6,205.1 457.4,204.1 458.2,207.4 459.0,207.1 459.8,204.6 460.6,202.0 461.4,207.1 462.2,206.9 463.1,203.6 463.9,204.1 464.7,207.1 465.5,207.4 466.3,204.1 467.1,203.3 467.9,207.4 468.7,207.1 469.5,201.8 470.3,202.5 471.1,206.6 472.0,207.1 472.8,201.0 473.6,204.1 474.4,206.9 475.2,206.3 476.0,201.0 476.8,204.6 477.6,206.9 478.4,206.3 479.2,200.8 480.0,204.8 480.8,206.6 481.6,206.3 482.5,198.7 483.3,205.3 484.1,206.6 485.7,198.5 486.5,204.6 487.3,205.3 488.1,206.3 488.9,197.7 489.7,204.3 490.5,203.0 491.3,206.6 492.2,199.2 493.0,203.6 493.8,202.8 494.7,206.3 495.4,197.2 496.6,202.3 497.0,203.6 497.8,206.6 498.6,200.3 499.4,202.0 500.2,204.1 501.0,206.3 501.8,200.0 502.7,276.2 503.5,204.3 504.3,205.6 505.1,201.0 505.9,201.3 506.7,204.6 507.5,205.6 508.4,200.8 509.1,203.0 510.0,203.8 510.7,206.3 511.5,203.0 513.2,204.6 517.0,206.6 517.0,202.5 519.2,203.6 520.0,202.8 520.4,206.3 521.2,205.1 522.1,203.3 522.9,202.3 523.7,206.6 524.5,206.1 525.3,204.6 526.1,202.3 526.9,206.6 527.7,205.8 528.5,202.5 529.3,203.0 530.1,206.9 531.0,205.6 531.8,202.0 533.4,206.1 535.0,202.0 535.8,202.3 536.6,206.1 537.4,206.3 538.2,200.3 539.0,204.1 539.8,206.3 540.7,206.1 541.5,200.0 542.3,205.3 543.1,206.1 543.9,205.8 544.7,199.2 545.5,204.8 546.3,206.3 547.1,206.1 547.9,198.7 548.7,204.8 549.5,205.6 550.3,206.3 551.2,197.7 552.0,204.1 552.8,204.3 553.6,206.1 554.4,198.5 555.2,203.8 556.0,204.3 556.8,206.1 557.6,198.5 558.4,201.8 560.0,206.3 560.9,197.5 561.7,201.5 562.5,202.5 563.3,206.6 564.1,199.5 564.9,201.0 565.7,203.6 566.5,206.6 567.3,201.8 568.1,202.3 568.9,205.3 569.7,206.3 570.6,201.3 571.4,202.3 572.2,205.3 573.0,207.1 574.1,202.3 574.7,202.8 575.4,205.6 577.1,206.9 577.1,201.8 577.8,203.3 578.7,204.6 579.4,207.1 580.3,203.3 581.2,204.3 581.9,203.8 582.7,207.1 583.5,204.3 584.3,204.6 585.1,202.5 585.9,207.1 586.7,206.3 587.6,204.3 588.3,202.3 589.1,206.9 590.0,206.6 590.8,204.1 591.6,201.5 592.4,207.1 593.2,206.9 594.0,202.3 595.6,206.9 596.4,206.6 597.2,201.5 598.0,202.5 598.8,207.1 599.7,206.9 600.5,200.8 601.3,204.1 602.1,207.4 602.9,352.4 603.7,349.6 604.5,346.3 605.3,345.3 606.1,348.8 606.9,348.1 607.7,346.5 609.4,345.5 610.2,349.1 611.0,347.6 611.8,347.8 612.6,349.1 613.4,346.3 614.2,344.8 615.0,345.8 615.8,345.5 616.6,349.1 617.4,346.8 618.2,347.8 619.1,348.6 619.9,346.8 620.7,345.0 621.5,347.0 622.3,347.8 623.1,349.3 623.9,346.0 624.7,346.8 625.5,348.6 626.3,346.8 627.1,343.2 627.9,345.8 628.8,345.5 629.6,349.3 630.4,348.1 631.2,347.8 632.0,347.3 632.8,346.3 633.6,344.3 634.4,348.1 635.2,347.0 636.0,349.1 636.8,345.8 637.6,346.3 638.5,346.8 640.1,343.5 640.9,345.5 641.7,345.0 642.5,349.1 643.3,347.0 644.1,347.3 644.9,345.3 645.7,345.8 646.5,342.5 647.3,346.8 648.2,347.3 649.0,349.1 649.8,345.8 650.6,345.3 651.4,345.5 652.2,346.5 653.0,342.5 653.8,346.5 654.6,346.3 655.4,349.1 656.2,346.3 657.0,345.8 659.5,341.7 660.3,347.0 661.1,346.5 661.9,349.3 662.7,346.8 663.5,344.5 664.3,345.5 665.1,345.0 665.9,342.2 666.7,347.0 667.6,346.8 668.4,348.8 669.2,345.8 670.0,344.0 670.8,347.0 671.6,346.0 672.4,341.7 673.2,346.0 674.0,345.3 674.8,349.1 675.6,346.5 676.4,345.0 677.3,345.5 678.1,344.5 678.9,344.0 679.7,347.0 680.5,347.3 681.3,349.1 682.1,345.3 682.9,344.8 683.7,346.5 684.5,346.8 685.3,343.0 686.1,344.8 687.1,344.5 687.8,349.1 688.6,346.8 689.5,346.5 690.2,346.0 691.1,345.0 691.8,342.5 692.6,346.5 693.4,345.5 694.2,348.8 695.0,345.5 695.8,345.3 696.6,347.3 697.5,346.8 698.3,344.0 699.1,345.8 699.9,344.5 700.7,349.1 701.5,345.3 702.3,347.6 703.1,347.0 703.9,346.3 704.7,345.8 705.5,346.0 706.4,344.5 707.2,348.8 708.0,346.5 708.8,346.8 709.6,346.0 710.4,345.8 711.2,344.3 712.0,346.0 712.8,345.8 713.6,349.1 714.4,344.3 715.2,347.3 716.0,347.6 716.9,347.0 717.7,349.1 718.5,344.5 719.3,345.5 720.1,349.1 720.9,346.5 721.7,347.6 722.5,344.8 723.3,345.8 724.1,348.6 724.9,348.8 725.8,345.3 726.6,344.3 727.4,348.8 728.2,346.8 729.0,346.3 729.8,345.0 731.4,348.8 732.2,346.5 733.0,347.3 733.8,348.8 734.6,349.1 735.4,345.3 736.3,345.5 737.1,348.8 737.9,346.5 738.7,346.8 739.5,346.0 740.3,346.3 741.1,350.1 741.9,348.3 742.7,348.8 743.5,350.1 744.3,347.6 745.2,345.8 746.0,346.3 746.8,350.6 747.6,358.7 748.4,358.5 750.0,360.0" stroke="#e6194b" stroke-width="2" stroke-opacity="0.5" fill="none" /><polyline points="50.0,358.2 50.8,354.2 51.6,353.1 52.4,354.7 53.2,348.3 54.0,273.4 54.9,338.7 55.7,315.0 56.5,67.4 57.3,55.2 58.1,76.8 58.9,80.1 59.7,81.7 60.5,84.7 61.3,85.2 62.1,83.9 62.9,84.7 63.7,87.5 64.6,83.9 65.4,86.2 66.2,88.3 67.0,89.8 67.8,89.0 70.2,89.8 71.0,91.8 71.8,89.8 72.6,90.5 73.4,91.0 74.3,91.3 75.1,93.3 75.9,89.8 76.7,94.1 77.5,93.3 78.3,94.6 79.1,93.3 79.9,96.6 80.7,98.2 81.5,97.4 82.3,100.7 83.1,91.3 84.0,97.4 84.8,98.2 85.6,102.0 87.2,98.2 88.0,97.4 88.8,101.5 89.6,102.7 90.4,98.2 92.0,103.2 92.8,104.0 93.6,100.2 94.5,101.0 95.3,105.3 96.1,105.8 96.9,101.5 97.7,100.2 98.5,107.8 99.3,106.5 100.1,102.2 100.9,104.0 101.7,107.3 102.5,106.5 103.4,102.7 104.2,107.3 105.0,108.3 105.8,109.1 106.6,102.2 107.4,107.8 108.2,108.8 109.0,110.9 109.8,103.7 110.6,109.6 111.4,110.9 113.0,105.5 113.9,111.4 114.7,112.6 115.5,113.9 116.3,107.0 117.1,111.9 118.7,114.4 119.5,107.0 120.3,110.9 121.1,113.1 121.9,115.7 122.7,107.8 123.6,112.1 124.4,115.2 125.2,107.8 126.0,109.1 126.8,112.1 127.6,115.7 128.4,109.1 129.2,111.6 130.0,113.9 130.8,115.7 131.6,113.1 132.4,112.1 133.3,115.7 134.1,116.2 135.7,113.1 136.5,112.6 137.3,118.5 138.1,116.7 138.9,116.2 139.7,113.9 140.5,118.0 141.3,117.5 142.1,114.4 143.0,113.9 143.8,118.0 144.6,119.0 145.4,116.2 146.2,114.4 147.0,119.0 147.8,118.5 148.7,113.1 149.4,116.2 150.2,119.0 151.0,120.3 151.9,116.2 152.7,115.2 153.5,120.3 155.1,113.1 155.9,116.7 156.7,121.3 157.5,121.8 158.3,113.1 159.1,117.7 159.9,121.3 160.7,122.3 161.5,114.7 162.4,120.8 163.2,122.5 164.0,121.8 164.8,114.4 165.6,121.3 166.4,123.0 167.2,122.8 168.0,116.2 168.8,121.8 169.6,122.5 170.4,208.9 171.3,195.7 172.1,198.2 172.9,101.0 173.7,120.8 174.5,122.8 175.3,117.5 176.1,122.8 176.9,124.6 177.7,125.1 178.5,117.2 179.3,123.6 180.1,125.8 181.0,210.2 181.8,196.4 182.6,201.5 183.4,203.0 184.2,202.8 185.0,193.9 185.8,200.0 186.6,201.0 187.4,202.5 188.2,192.9 189.0,199.0 189.8,200.5 190.7,202.5 191.6,192.6 192.3,198.2 193.1,199.2 193.9,202.5 194.7,195.2 195.7,198.2 196.4,199.7 197.4,203.0 199.1,194.7 199.1,198.5 202.9,202.3 203.6,203.8 204.4,197.7 205.2,86.2 206.0,121.8 207.2,126.6 207.6,119.5 208.4,123.3 209.2,126.6 210.0,127.1 210.9,126.1 211.7,122.8 212.5,126.6 213.3,128.9 214.1,212.7 214.9,205.6 215.7,201.5 216.5,205.1 217.3,204.6 218.1,200.5 218.9,201.3 219.7,204.1 220.6,204.3 221.4,201.5 222.2,199.5 223.0,204.8 223.8,204.3 224.6,201.5 225.4,201.3 226.2,204.8 227.0,204.3 227.8,201.5 228.6,200.0 229.4,204.6 230.3,204.3 231.1,200.0 231.9,202.0 232.7,204.6 233.5,205.3 234.3,199.7 235.1,201.3 235.9,205.3 236.7,205.1 237.5,199.2 238.3,77.3 239.1,123.3 240.0,129.4 240.8,123.3 241.6,128.6 242.4,132.7 243.2,131.2 244.0,123.8 244.8,216.0 245.6,211.4 246.4,208.1 247.2,199.2 248.0,204.8 248.8,205.3 249.7,205.6 250.5,198.7 251.3,203.3 252.1,203.8 252.9,207.1 253.7,198.5 254.5,203.8 255.3,202.8 256.1,207.1 256.9,198.0 257.7,203.3 258.5,201.8 259.4,206.9 260.2,192.4 261.0,201.5 261.8,205.1 262.6,206.6 263.4,199.2 264.2,202.3 265.0,203.0 265.8,206.1 266.6,200.5 267.4,201.8 268.2,205.3 269.1,207.1 269.9,200.0 270.7,201.3 271.5,205.8 272.3,207.6 273.1,197.5 273.9,202.0 274.7,205.3 275.5,206.6 276.3,201.3 277.1,203.0 277.9,205.6 278.8,206.9 279.6,205.6 280.4,204.3 281.2,203.3 282.0,207.6 283.6,205.3 284.4,204.1 285.2,207.4 286.0,207.9 286.8,205.3 287.6,203.3 288.5,207.6 290.1,204.3 290.9,203.0 291.7,208.6 292.5,208.1 293.3,204.1 294.1,205.1 294.9,208.1 295.7,208.4 296.5,203.8 297.3,204.1 298.2,208.4 299.0,207.9 299.8,203.0 300.6,204.3 301.4,207.6 303.0,202.0 303.8,205.3 304.6,207.6 306.2,201.3 307.0,205.3 307.9,207.6 309.5,201.0 310.3,207.1 311.1,207.4 311.9,208.1 312.7,199.7 313.5,206.3 314.3,207.6 315.1,208.1 315.9,200.3 316.7,205.8 317.6,206.6 318.4,208.6 319.2,200.3 320.0,205.6 320.8,204.8 321.6,208.6 322.4,198.7 323.2,204.3 324.0,205.8 324.8,208.6 325.6,200.8 326.4,203.6 327.3,204.8 328.1,208.6 328.9,201.0 329.7,203.3 330.5,206.3 331.3,208.6 332.1,202.5 333.7,206.1 334.5,208.4 335.3,202.8 336.1,203.6 337.0,205.6 337.8,208.4 338.6,203.0 340.2,205.6 341.0,208.4 341.8,201.5 342.6,205.3 343.4,207.6 344.2,208.1 345.0,201.5 345.8,207.1 346.7,207.9 347.5,207.4 348.3,201.0 349.1,207.1 349.9,207.6 350.7,208.1 351.5,199.5 352.3,206.9 353.1,208.1 353.9,208.4 354.7,200.3 355.5,206.3 356.4,207.6 357.2,208.4 358.0,199.5 358.8,206.9 359.6,206.6 360.4,208.4 361.2,200.3 362.0,205.1 362.8,205.3 363.6,208.6 364.4,197.7 365.2,205.1 366.1,204.3 366.9,208.1 367.7,198.2 368.5,202.8 369.3,204.8 370.1,208.6 370.9,201.5 371.7,203.0 372.5,206.6 373.3,208.6 374.1,203.3 374.9,202.5 375.8,206.6 376.6,208.4 377.4,203.8 378.2,203.3 379.0,207.1 379.8,208.4 380.6,201.8 381.4,203.8 382.2,206.9 383.0,208.1 383.8,204.1 384.6,205.1 385.5,206.3 386.3,208.4 387.1,207.4 387.9,205.6 389.5,208.4 390.3,206.6 391.1,204.8 391.9,205.1 392.8,208.4 393.5,207.9 394.3,204.6 395.2,203.6 396.0,208.4 396.8,207.9 397.6,204.3 398.4,204.1 399.2,208.1 400.0,207.9 400.8,204.8 401.6,204.3 402.4,207.9 403.2,208.4 404.0,202.5 404.9,204.8 405.7,208.4 407.3,203.0 408.1,205.3 408.9,208.6 409.7,207.6 410.5,201.0 411.3,205.1 412.1,207.6 412.9,208.4 413.7,200.3 414.6,205.8 415.4,207.9 416.2,208.1 417.0,200.0 417.8,206.3 418.6,207.1 419.4,207.4 420.2,200.0 421.0,204.8 421.8,205.8 422.6,207.9 423.4,199.2 424.3,204.1 425.1,205.8 425.9,207.6 426.7,200.3 427.5,205.6 428.3,203.3 429.1,207.9 429.9,197.7 430.7,203.0 431.5,203.8 432.3,207.9 433.1,199.7 434.0,203.0 434.8,205.3 435.6,208.1 436.4,202.0 437.2,201.8 438.0,205.1 438.8,207.6 439.6,202.5 441.2,205.8 442.0,207.1 442.8,203.0 443.7,202.0 444.5,205.8 445.3,207.4 446.1,203.3 446.9,203.8 447.7,206.9 448.5,207.6 449.3,203.0 450.1,204.3 450.9,205.1 451.7,207.1 452.5,202.8 453.4,204.6 454.2,204.1 455.0,207.1 455.8,205.8 456.6,205.1 457.4,204.1 458.2,207.4 459.0,207.1 459.8,204.6 460.6,202.0 461.4,207.1 462.2,206.9 463.1,203.6 463.9,204.1 464.7,207.1 465.5,207.4 466.3,204.1 467.1,203.3 467.9,207.4 468.7,207.1 469.5,201.8 470.3,202.5 471.1,206.6 472.0,207.1 472.8,201.0 473.6,204.1 474.4,206.9 475.2,206.3 476.0,201.0 476.8,204.6 477.6,206.9 478.4,206.3 479.2,200.8 480.0,204.8 480.8,206.6 481.6,206.3 482.5,198.7 483.3,205.3 484.1,206.6 485.7,198.5 486.5,204.6 487.3,205.3 488.1,206.3 488.9,197.7 489.7,204.3 490.5,203.0 491.3,206.6 492.2,199.2 493.0,203.6 493.8,202.8 494.7,206.3 495.4,197.2 496.6,202.3 497.0,203.6 497.8,206.6 498.6,200.3 499.4,202.0 500.2,204.1 501.0,206.3 501.8,200.0 502.7,276.2 503.5,204.3 504.3,205.6 505.1,201.0 505.9,201.3 506.7,204.6 507.5,205.6 508.4,200.8 509.1,203.0 510.0,203.8 510.7,206.3 511.5,203.0 513.2,204.6 517.0,206.6 517.0,202.5 519.2,203.6 520.0,202.8 520.4,206.3 521.2,205.1 522.1,203.3 522.9,202.3 523.7,206.6 524.5,206.1 525.3,204.6 526.1,202.3 526.9,206.6 527.7,205.8 528.5,202.5 529.3,203.0 530.1,206.9 531.0,205.6 531.8,202.0 533.4,206.1 535.0,202.0 535.8,202.3 536.6,206.1 537.4,206.3 538.2,200.3 539.0,204.1 539.8,206.3 540.7,206.1 541.5,200.0 542.3,205.3 543.1,206.1 543.9,205.8 544.7,199.2 545.5,204.8 546.3,206.3 547.1,206.1 547.9,198.7 548.7,204.8 549.5,205.6 550.3,206.3 551.2,197.7 552.0,204.1 552.8,204.3 553.6,206.1 554.4,198.5 555.2,203.8 556.0,204.3 556.8,206.1 557.6,198.5 558.4,201.8 560.0,206.3 560.9,197.5 561.7,201.5 562.5,202.5 563.3,206.6 564.1,199.5 564.9,201.0 565.7,203.6 566.5,206.6 567.3,201.8 568.1,202.3 568.9,205.3 569.7,206.3 570.6,201.3 571.4,202.3 572.2,205.3 573.0,207.1 574.1,202.3 574.7,202.8 575.4,205.6 577.1,206.9 577.1,201.8 577.8,203.3 578.7,204.6 579.4,207.1 580.3,203.3 581.2,204.3 581.9,203.8 582.7,207.1 583.5,204.3 584.3,204.6 585.1,202.5 585.9,207.1 586.7,206.3 587.6,204.3 588.3,202.3 589.1,206.9 590.0,206.6 590.8,204.1 591.6,201.5 592.4,207.1 593.2,206.9 594.0,202.3 595.6,206.9 596.4,206.6 597.2,201.5 598.0,202.5 598.8,207.1 599.7,206.9 600.5,200.8 601.3,204.1 602.1,207.4 602.9,352.4 603.7,349.6 604.5,346.3 605.3,345.3 606.1,348.8 606.9,348.1 607.7,346.5 609.4,345.5 610.2,349.1 611.0,347.6 611.8,347.8 612.6,349.1 613.4,346.3 614.2,344.8 615.0,345.8 615.8,345.5 616.6,349.1 617.4,346.8 618.2,347.8 619.1,348.6 619.9,346.8 620.7,345.0 621.5,347.0 622.3,347.8 623.1,349.3 623.9,346.0 624.7,346.8 625.5,348.6 626.3,346.8 627.1,343.2 627.9,345.8 628.8,345.5 629.6,349.3 630.4,348.1 631.2,347.8 632.0,347.3 632.8,346.3 633.6,344.3 634.4,348.1 635.2,347.0 636.0,349.1 636.8,345.8 637.6,346.3 638.5,346.8 640.1,343.5 640.9,345.5 641.7,345.0 642.5,349.1 643.3,347.0 644.1,347.3 644.9,345.3 645.7,345.8 646.5,342.5 647.3,346.8 648.2,347.3 649.0,349.1 649.8,345.8 650.6,345.3 651.4,345.5 652.2,346.5 653.0,342.5 653.8,346.5 654.6,346.3 655.4,349.1 656.2,346.3 657.0,345.8 659.5,341.7 660.3,347.0 661.1,346.5 661.9,349.3 662.7,346.8 663.5,344.5 664.3,345.5 665.1,345.0 665.9,342.2 666.7,347.0 667.6,346.8 668.4,348.8 669.2,345.8 670.0,344.0 670.8,347.0 671.6,346.0 672.4,341.7 673.2,346.0 674.0,345.3 674.8,349.1 675.6,346.5 676.4,345.0 677.3,345.5 678.1,344.5 678.9,344.0 679.7,347.0 680.5,347.3 681.3,349.1 682.1,345.3 682.9,344.8 683.7,346.5 684.5,346.8 685.3,343.0 686.1,344.8 687.1,344.5 687.8,349.1 688.6,346.8 689.5,346.5 690.2,346.0 691.1,345.0 691.8,342.5 692.6,346.5 693.4,345.5 694.2,348.8 695.0,345.5 695.8,345.3 696.6,347.3 697.5,346.8 698.3,344.0 699.1,345.8 699.9,344.5 700.7,349.1 701.5,345.3 702.3,347.6 703.1,347.0 703.9,346.3 704.7,345.8 705.5,346.0 706.4,344.5 707.2,348.8 708.0,346.5 708.8,346.8 709.6,346.0 710.4,345.8 711.2,344.3 712.0,346.0 712.8,345.8 713.6,349.1 714.4,344.3 715.2,347.3 716.0,347.6 716.9,347.0 717.7,349.1 718.5,344.5 719.3,345.5 720.1,349.1 720.9,346.5 721.7,347.6 722.5,344.8 723.3,345.8 724.1,348.6 724.9,348.8 725.8,345.3 726.6,344.3 727.4,348.8 728.2,346.8 729.0,346.3 729.8,345.0 731.4,348.8 732.2,346.5 733.0,347.3 733.8,348.8 734.6,349.1 735.4,345.3 736.3,345.5 737.1,348.8 737.9,346.5 738.7,346.8 739.5,346.0 740.3,346.3 741.1,350.1 741.9,348.3 742.7,348.8 743.5,350.1 744.3,347.6 745.2,345.8 746.0,346.3 746.8,350.6 747.6,358.7 748.4,358.5 750.0,360.0" stroke="#4363d8" stroke-width="2" stroke-opacity="1.0" fill="none" /><line x1="50.0" y1="40" x2="50.0" y2="360" stroke="#e6194b" stroke-dasharray="4" stroke-width="1" /><text x="50.0" y="375" fill="#e6194b" font-size="12" text-anchor="middle">Trim Start</text><line x1="750.0" y1="40" x2="750.0" y2="360" stroke="#e6194b" stroke-dasharray="4" stroke-width="1" /><text x="750.0" y="375" fill="#e6194b" font-size="12" text-anchor="middle">Trim End</text></svg>