<svg xmlns="http://www.w3.org/2000/svg" viewBox="0 0 800 400" style="background-color: #1c1c1c; font-family: sans-serif;">
    <rect x="0" y="0" width="800" height="400" fill="#1c1c1c" />
    <line x1="50" y1="360" x2="750" y2="360" stroke="#444" stroke-width="2" />
    <line x1="50" y1="40" x2="50" y2="360" stroke="#444" stroke-width="2" />
    <text x="50" y="25" fill="#aaa" font-size="16">451W</text>
    <text x="750" y="390" fill="#aaa" font-size="16" text-anchor="middle">2540s</text>
    <text x="400.0" y="25" fill="#fff" font-size="20" text-anchor="middle" font-weight="bold">Recording Preview</text>
    <polyline points="50.0,356.5 52.7,355.7 55.5,343.0 58.3,355.7 74.8,343.0 80.3,351.5 85.8,346.5 88.6,338.7 91.3,337.3 94.1,340.2 96.8,330.9 99.6,329.5 102.3,325.3 105.1,290.5 107.9,312.5 110.6,288.4 113.4,299.8 116.1,295.5 118.9,289.8 124.4,299.8 127.2,343.0 129.9,263.6 132.7,355.0 135.4,257.9 138.2,355.7 141.0,266.4 143.7,355.7 146.4,271.4 149.2,267.9 152.0,355.7 154.7,257.2 157.5,355.7 160.2,235.3 163.0,355.7 165.7,224.6 168.5,306.8 171.2,241.6 174.0,260.1 176.8,260.8 179.5,236.0 182.3,262.2 185.0,279.9 188.4,262.2 190.6,254.4 193.3,279.9 196.1,276.4 198.8,355.7 201.6,224.6 204.3,253.0 207.1,245.9 209.8,355.7 212.6,249.4 215.4,313.2 218.1,277.8 220.9,355.7 223.6,255.8 226.4,354.3 229.1,287.7 232.0,281.3 234.6,355.7 237.4,272.1 240.2,258.6 243.0,211.9 245.7,355.7 248.4,243.8 251.2,299.8 253.9,351.5 256.7,285.6 259.5,355.7 262.2,264.3 265.0,256.5 267.7,232.4 270.5,355.7 273.2,281.3 276.0,258.6 278.7,327.4 281.5,355.7 292.5,232.4 295.3,355.7 298.0,245.9 300.8,355.7 303.5,351.5 306.3,195.6 309.1,352.2 311.8,350.8 314.6,351.5 317.3,355.7 320.1,176.4 322.8,253.0 325.6,355.7 328.3,350.8 331.1,355.7 333.9,351.5 336.6,201.2 339.4,355.7 344.9,238.1 347.6,355.7 350.4,307.6 353.1,355.7 355.9,236.0 358.7,355.7 361.4,238.1 364.2,355.7 366.9,253.0 369.7,355.7 372.4,351.5 375.2,247.3 378.0,355.7 380.7,188.5 383.5,355.7 386.2,199.1 389.0,355.7 391.7,182.1 394.5,355.7 400.0,192.7 402.8,343.0 405.5,226.0 408.3,355.7 411.0,215.4 413.8,355.7 416.6,251.6 419.3,355.7 422.1,231.0 424.8,355.7 427.5,194.2 430.3,355.7 433.1,352.9 435.8,355.7 444.1,339.4 446.9,340.9 449.6,355.7 455.1,348.0 457.9,335.9 460.6,353.6 466.5,348.7 468.9,352.2 471.6,340.2 474.4,338.0 477.2,328.8 479.9,324.6 482.7,318.9 488.2,301.2 491.0,282.7 493.7,255.1 496.5,285.6 499.2,280.6 502.0,183.5 504.7,245.2 507.5,233.8 510.2,231.0 513.0,240.9 515.8,233.1 518.5,55.2 521.3,359.3 524.0,360.0 529.5,355.7 532.3,349.4 540.6,355.7 543.3,352.2 546.1,326.7 548.8,355.7 551.6,351.5 554.3,327.4 557.1,348.7 562.6,253.7 565.4,348.7 570.9,350.1 573.6,355.7 576.4,226.0 579.1,355.7 581.9,221.1 584.6,355.7 590.2,348.0 592.9,355.7 595.7,275.0 598.4,355.0 601.2,355.7 603.9,352.9 606.7,355.7 612.2,352.2 615.0,342.3 617.7,326.7 620.5,354.3 623.2,350.1 626.0,342.3 628.8,354.3 631.5,340.2 634.3,354.3 637.0,340.9 639.8,300.5 642.5,330.9 645.3,344.4 648.0,321.7 650.8,330.9 653.6,318.2 656.3,287.7 659.0,249.4 661.8,235.3 664.6,198.4 667.3,270.0 670.1,264.3 672.8,270.7 675.6,271.4 678.4,263.6 681.1,273.5 684.8,171.5 686.6,230.3 689.4,233.1 692.1,231.7 694.9,174.3 697.6,216.8 700.4,218.3 703.2,220.4 705.9,330.2 708.7,360.0 711.4,352.2 714.2,350.8 716.9,333.8 719.7,350.1 722.4,345.8 725.2,334.5 728.0,350.1 730.7,341.6 733.5,346.5 736.2,343.0 739.0,343.7 741.7,339.4 744.5,355.7 750.0,360.0" stroke="#e6194b" stroke-width="2" stroke-opacity="0.5" fill="none" /><polyline points="50.0,356.5 52.7,355.7 55.5,343.0 58.3,355.7 74.8,343.0 80.3,351.5 85.8,346.5 88.6,338.7 91.3,337.3 94.1,340.2 96.8,330.9 99.6,329.5 102.3,325.3 105.1,290.5 107.9,312.5 110.6,288.4 113.4,299.8 116.1,295.5 118.9,289.8 124.4,299.8 127.2,343.0 129.9,263.6 132.7,355.0 135.4,257.9 138.2,355.7 141.0,266.4 143.7,355.7 146.4,271.4 149.2,267.9 152.0,355.7 154.7,257.2 157.5,355.7 160.2,235.3 163.0,355.7 165.7,224.6 168.5,306.8 171.2,241.6 174.0,260.1 176.8,260.8 179.5,236.0 182.3,262.2 185.0,279.9 188.4,262.2 190.6,254.4 193.3,279.9 196.1,276.4 198.8,355.7 201.6,224.6 204.3,253.0 207.1,245.9 209.8,355.7 212.6,249.4 215.4,313.2 218.1,277.8 220.9,355.7 223.6,255.8 226.4,354.3 229.1,287.7 232.0,281.3 234.6,355.7 237.4,272.1 240.2,258.6 243.0,211.9 245.7,355.7 248.4,243.8 251.2,299.8 253.9,351.5 256.7,285.6 259.5,355.7 262.2,264.3 265.0,256.5 267.7,232.4 270.5,355.7 273.2,281.3 276.0,258.6 278.7,327.4 281.5,355.7 292.5,232.4 295.3,355.7 298.0,245.9 300.8,355.7 303.5,351.5 306.3,195.6 309.1,352.2 311.8,350.8 314.6,351.5 317.3,355.7 320.1,176.4 322.8,253.0 325.6,355.7 328.3,350.8 331.1,355.7 333.9,351.5 336.6,201.2 339.4,355.7 344.9,238.1 347.6,355.7 350.4,307.6 353.1,355.7 355.9,236.0 358.7,355.7 361.4,238.1 364.2,355.7 366.9,253.0 369.7,355.7 372.4,351.5 375.2,247.3 378.0,355.7 380.7,188.5 383.5,355.7 386.2,199.1 389.0,355.7 391.7,182.1 394.5,355.7 400.0,192.7 402.8,343.0 405.5,226.0 408.3,355.7 411.0,215.4 413.8,355.7 416.6,251.6 419.3,355.7 422.1,231.0 424.8,355.7 427.5,194.2 430.3,355.7 433.1,352.9 435.8,355.7 444.1,339.4 446.9,340.9 449.6,355.7 455.1,348.0 457.9,335.9 460.6,353.6 466.5,348.7 468.9,352.2 471.6,340.2 474.4,338.0 477.2,328.8 479.9,324.6 482.7,318.9 488.2,301.2 491.0,282.7 493.7,255.1 496.5,285.6 499.2,280.6 502.0,183.5 504.7,245.2 507.5,233.8 510.2,231.0 513.0,240.9 515.8,233.1 518.5,55.2 521.3,359.3 524.0,360.0 529.5,355.7 532.3,349.4 540.6,355.7 543.3,352.2 546.1,326.7 548.8,355.7 551.6,351.5 554.3,327.4 557.1,348.7 562.6,253.7 565.4,348.7 570.9,350.1 573.6,355.7 576.4,226.0 579.1,355.7 581.9,221.1 584.6,355.7 590.2,348.0 592.9,355.7 595.7,275.0 598.4,355.0 601.2,355.7 603.9,352.9 606.7,355.7 612.2,352.2 615.0,342.3 617.7,326.7 620.5,354.3 623.2,350.1 626.0,342.3 628.8,354.3 631.5,340.2 634.3,354.3 637.0,340.9 639.8,300.5 642.5,330.9 645.3,344.4 648.0,321.7 650.8,330.9 653.6,318.2 656.3,287.7 659.0,249.4 661.8,235.3 664.6,198.4 667.3,270.0 670.1,264.3 672.8,270.7 675.6,271.4 678.4,263.6 681.1,273.5 684.8,171.5 686.6,230.3 689.4,233.1 692.1,231.7 694.9,174.3 697.6,216.8 700.4,218.3 703.2,220.4 705.9,330.2 708.7,360.0 711.4,352.2 714.2,350.8 716.9,333.8 719.7,350.1 722.4,345.8 725.2,334.5 728.0,350.1 730.7,341.6 733.5,346.5 736.2,343.0 739.0,343.7 741.7,339.4 744.5,355.7 750.0,360.0" stroke="#4363d8" stroke-width="2" stroke-opacity="1.0" fill="none" /><line x1="50.0" y1="40" x2="50.0" y2="360" stroke="#e6194b" stroke-dasharray="4" stroke-width="1" /><text x="50.0" y="375" fill="#e6194b" font-size="12" text-anchor="middle">Trim Start</text><line x1="750.0" y1="40" x2="750.0" y2="360" stroke="#e6194b" stroke-dasharray="4" stroke-width="1" /><text x="750.0" y="375" fill="#e6194b" font-size="12" text-anchor="middle">Trim End</text></svg>