<?xml version="1.0" encoding="UTF-8" standalone="no"?>
<!-- Created with Inkscape (http://www.inkscape.org/) -->

<svg
   width="1920"
   height="1080"
   viewBox="0 0 1920 1080"
   version="1.1"
   id="svg5"
   xml:space="preserve"
   inkscape:version="1.2.1 (9c6d41e410, 2022-07-14)"
   sodipodi:docname="floorplan_edits.svg"
   xmlns:inkscape="http://www.inkscape.org/namespaces/inkscape"
   xmlns:sodipodi="http://sodipodi.sourceforge.net/DTD/sodipodi-0.dtd"
   xmlns:xlink="http://www.w3.org/1999/xlink"
   xmlns="http://www.w3.org/2000/svg"
   xmlns:svg="http://www.w3.org/2000/svg"><sodipodi:namedview
     id="namedview7"
     pagecolor="#505050"
     bordercolor="#eeeeee"
     borderopacity="1"
     inkscape:showpageshadow="0"
     inkscape:pageopacity="0"
     inkscape:pagecheckerboard="0"
     inkscape:deskcolor="#505050"
     inkscape:document-units="mm"
     showgrid="false"
     inkscape:zoom="1.4142136"
     inkscape:cx="856.65984"
     inkscape:cy="414.36456"
     inkscape:window-width="1920"
     inkscape:window-height="1027"
     inkscape:window-x="1912"
     inkscape:window-y="-8"
     inkscape:window-maximized="1"
     inkscape:current-layer="entities" /><defs
     id="defs2"><linearGradient
       id="linearGradient25632"
       inkscape:swatch="solid"><stop
         style="stop-color:#000000;stop-opacity:1;"
         offset="0"
         id="stop25630" /></linearGradient><linearGradient
       id="linearGradient3322"
       inkscape:swatch="solid"><stop
         style="stop-color:#000000;stop-opacity:1;"
         offset="0"
         id="stop3320" /></linearGradient><linearGradient
       id="linearGradient1323"
       inkscape:swatch="solid"><stop
         style="stop-color:#000000;stop-opacity:1;"
         offset="0"
         id="stop1321" /></linearGradient></defs><g
     inkscape:label="Background"
     inkscape:groupmode="layer"
     id="background"
     style="display:inline"><image
       width="1920"
       height="1080"
       preserveAspectRatio="none"
       xlink:href="floorplan.png"
       id="main-background"
       x="0.49999997"
       y="-0.25"
       href="/local/lovelace/floorplan/floorplan.png"
       style="display:inline"
       sodipodi:insensitive="true" /><g
       inkscape:groupmode="layer"
       id="light-overlays"
       inkscape:label="Light Overlays"
       style="display:inline"><image
         width="1920"
         height="1080"
         preserveAspectRatio="none"
         xlink:href="floorplan0001.png"
         id="light_overlay.wash"
         x="0"
         y="0"
         href="/local/lovelace/floorplan/floorplan0001.png"
         style="display:inline" /><image
         width="1920"
         height="1080"
         preserveAspectRatio="none"
         xlink:href="floorplan0002.png"
         id="light_overlay.toilet"
         x="0"
         y="0"
         href="/local/lovelace/floorplan/floorplan0002.png"
         style="display:inline" /><image
         width="1920"
         height="1080"
         preserveAspectRatio="none"
         xlink:href="floorplan0003.png"
         id="light_overlay.storage"
         x="0"
         y="0"
         href="/local/lovelace/floorplan/floorplan0003.png"
         style="display:inline" /><image
         width="1920"
         height="1080"
         preserveAspectRatio="none"
         xlink:href="floorplan0005.png"
         id="light_overlay.shower"
         x="0"
         y="0"
         href="/local/lovelace/floorplan/floorplan0005.png"
         style="display:inline" /><image
         width="1920"
         height="1080"
         preserveAspectRatio="none"
         xlink:href="floorplan0006.png"
         id="light_overlay.shion"
         x="0"
         y="0"
         href="/local/lovelace/floorplan/floorplan0006.png"
         style="display:inline" /><image
         width="1920"
         height="1080"
         preserveAspectRatio="none"
         xlink:href="floorplan0007.png"
         id="light_overlay.night_light"
         x="0"
         y="0"
         href="/local/lovelace/floorplan/floorplan0007.png"
         style="display:inline" /><image
         width="1920"
         height="1080"
         preserveAspectRatio="none"
         xlink:href="floorplan0010.png"
         id="light_overlay.master_lamp"
         x="0"
         y="0"
         href="/local/lovelace/floorplan/floorplan0010.png"
         style="display:inline" /><image
         width="1920"
         height="1080"
         preserveAspectRatio="none"
         xlink:href="floorplan0008.png"
         id="light_overlay.master"
         x="0"
         y="0"
         href="/local/lovelace/floorplan/floorplan0008.png"
         style="display:inline" /><image
         width="1920"
         height="1080"
         preserveAspectRatio="none"
         xlink:href="floorplan0009.png"
         id="light_overlay.living"
         x="0"
         y="0"
         href="/local/lovelace/floorplan/floorplan0009.png"
         style="display:inline" /><image
         width="1920"
         height="1080"
         preserveAspectRatio="none"
         xlink:href="floorplan0012.png"
         id="light_overlay.cabinet"
         x="0"
         y="0"
         href="/local/lovelace/floorplan/floorplan0012.png"
         style="display:inline" /><image
         width="1920"
         height="1080"
         preserveAspectRatio="none"
         xlink:href="floorplan0011.png"
         id="light_overlay.counter"
         x="0"
         y="0"
         href="/local/lovelace/floorplan/floorplan0011.png"
         style="display:inline" /><image
         width="1920"
         height="1080"
         preserveAspectRatio="none"
         xlink:href="floorplan0014.png"
         id="light_overlay.genkan"
         x="0"
         y="0"
         href="/local/lovelace/floorplan/floorplan0014.png"
         style="display:inline" /><image
         width="1920"
         height="1080"
         preserveAspectRatio="none"
         xlink:href="floorplan0013.png"
         id="light_overlay.hallway"
         x="0"
         y="0"
         href="/local/lovelace/floorplan/floorplan0013.png"
         style="display:inline" /><image
         width="1920"
         height="1080"
         preserveAspectRatio="none"
         xlink:href="floorplan0015.png"
         id="light_overlay.ceiling_fan_light"
         x="0"
         y="0"
         href="/local/lovelace/floorplan/floorplan0015.png"
         style="display:inline" /><image
         width="1920"
         height="1080"
         preserveAspectRatio="none"
         xlink:href="floorplan0016.png"
         id="light_overlay.computer"
         x="0"
         y="0"
         href="/local/lovelace/floorplan/floorplan0016.png" /><image
         width="1920"
         height="1080"
         preserveAspectRatio="none"
         xlink:href="floorplan0017.png"
         id="light_overlay.master_closet"
         x="0"
         y="0"
         href="/local/lovelace/floorplan/floorplan0017.png"
         style="display:inline" /><image
         width="1920"
         height="1080"
         preserveAspectRatio="none"
         xlink:href="floorplan0004.png"
         id="light_overlay.sink_all"
         x="0"
         y="0"
         href="/local/lovelace/floorplan/floorplan0004.png"
         style="display:inline" /><image
         width="1920"
         height="1080"
         preserveAspectRatio="none"
         xlink:href="floorplan0020.png"
         id="sensor.duc_bermuda_area"
         x="0"
         y="0"
         href="/local/lovelace/floorplan/floorplan0020.png"
         style="display:inline" /><image
         width="1920"
         height="1080"
         preserveAspectRatio="none"
         xlink:href="floorplan0019.png"
         id="sensor.eri_bermuda_area"
         x="0"
         y="0"
         href="/local/lovelace/floorplan/floorplan0019.png"
         style="display:inline" /><image
         width="1920"
         height="1080"
         preserveAspectRatio="none"
         xlink:href="floorplan0018.png"
         id="sensor.shion_tms_bermuda_area"
         x="0"
         y="0"
         href="/local/lovelace/floorplan/floorplan0018.png"
         style="display:inline" /></g></g><g
     inkscape:groupmode="layer"
     id="areas"
     inkscape:label="Areas"
     style="display:inline"><g
       inkscape:groupmode="layer"
       id="area.computer"
       inkscape:label="Computer Room"
       style="display:inline"><path
         id="path001"
         style="display:inline;fill:none;stroke:#000000"
         d="m 767.53899,401.43284 -144.64927,-105.90468 -0.25,-6.25 -2.74036,-2.05736 14.50931,-12.03126 -9.06739,-5.72012 v -64.49087 l -9.67829,-7.76403 -158.913,135.28547 9.25,7 -0.5,64.75 226.39229,173.56705 75.11389,-64.00325 -56.89346,-43.09046 37.09101,-31.84496 v -19.21054 l 0.0462,-1.23037 z"
         sodipodi:nodetypes="ccccccccccccccc" /><path
         id="path2186"
         style="display:inline;fill:none;stroke:#000000"
         d="m 767.53899,401.43284 -144.64927,-105.90468 -0.25,-6.25 -2.74036,-2.05736 14.50931,-12.03126 -9.06739,-5.72012 v -64.49087 l -9.67829,-7.76403 -158.913,135.28547 9.25,7 -0.5,64.75 226.39229,173.56705 75.11389,-64.00325 -56.89346,-43.09046 37.09101,-31.84496"
         sodipodi:nodetypes="ccccccccccccccc" /><use
         id="binary_sensor.computerroom_window_triggered"
         xlink:href="#path001"
         style="display:inline" /><use
         id="light.computer"
         xlink:href="#path2186" /></g><g
       inkscape:groupmode="layer"
       id="area.living"
       inkscape:label="Livingroom"
       style="display:inline"><path
         id="path002"
         style="display:inline;fill:none;stroke:#000000;stroke-linecap:butt"
         d="m 861.9148,460.4885 53.7908,-45.42419 0.25476,-28.89485 -3.66868,-2.62206 -0.28082,-2.94081 136.75624,-114.83264 0.036,-47.9804 9.3173,-7.81201 L 984.57902,154.04805 818.8232,28.237436 615.65227,197.25113 l 9.68901,7.72742 v 64.49087 l 9.06739,5.72012 -14.49284,12.02867 2.74036,2.05736 0.25,6.24999 144.73516,105.94499 12.60858,-10.72059 29.37499,22.5 3.0091,7.875 v 13.17334 l 25.66648,19.64088 10.58347,-9.49558 8.71101,5.85728 0.39062,7.08744 3.97015,3.16714"
         sodipodi:nodetypes="ccccccccccccccccccccccccccc" /><path
         id="path2668"
         style="display:inline;fill:none;stroke:#000000;stroke-linecap:butt"
         d="m 767.61357,401.46259 -144.70738,-105.93703 -0.25,-6.24999 -2.74036,-2.05736 14.49284,-12.02867 -9.06739,-5.72012 V 204.97855 L 615.65227,197.25113 818.8232,28.237436 984.57663,154.05009"
         sodipodi:nodetypes="cccccccccc" /><use
         id="binary_sensor.livingroom_window_triggered"
         xlink:href="#path002"
         style="display:inline" /><use
         id="light.living"
         xlink:href="#path2668"
         style="display:inline;fill:none;fill-opacity:1;stroke:#000000;stroke-opacity:1"
         x="0"
         y="0" /></g><g
       inkscape:groupmode="layer"
       id="area.wash"
       inkscape:label="Wash Room"
       style="display:inline"><path
         style="display:inline;fill:none;fill-opacity:1;stroke:#000000;stroke-opacity:1"
         d="m 885.22959,567.47733 9.75092,-8.42257 49.2317,-41.83624 -3.45859,-2.70357 m -27.02553,-20.95419 -12.67348,-9.65408 -1.43892,1.50599 0.36986,5.50889 -41.99995,-33.53324 -0.39062,-7.08744 -8.71101,-5.85728 -10.58347,9.49558 -25.66648,-19.64088 m -65.4303,4.58007 -37.09101,31.84496 56.84606,43.02949 13.71481,-11.56899 9.46032,6.71031 0.0353,6.1938 33.30081,26.0021 -0.28277,-5.57295 1.30388,-1.25541 23.75018,18.50751"
         id="path8157"
         sodipodi:nodetypes="ccccccccccccccccccccccc" /><use
         id="light.laundry"
         xlink:href="#path8157"
         style="display:inline;fill:none;fill-opacity:1;stroke:#000000;stroke-opacity:1"
         x="0"
         y="0" /></g><g
       inkscape:groupmode="layer"
       id="area.shower"
       inkscape:label="Shower Room"
       style="display:inline"><path
         style="fill:none;fill-opacity:1;stroke:#000000;stroke-opacity:1"
         d="m 890.52347,583.95324 4.73926,3.70608 -89.73839,75.98682 -113.61475,-85.76204 88.76399,-75.70027 9.46032,6.71031 0.0353,6.1938 33.30081,26.0021 -0.28277,-5.57295 1.30388,-1.25541 23.75018,18.50751"
         id="path7882"
         sodipodi:nodetypes="ccccccccccc" /><use
         id="light.shower"
         xlink:href="#path7882"
         style="display:inline;fill:none;fill-opacity:1;stroke:#000000;stroke-opacity:1"
         x="0"
         y="0" /></g><g
       inkscape:groupmode="layer"
       id="area.storage"
       inkscape:label="Storage Room"
       style="display:inline"><path
         style="fill:none;stroke:#000000;stroke-opacity:1"
         d="m 978.06842,548.20343 -24.71446,-19.07214 -0.3508,-5.43033 -8.83883,-6.45235 -49.40909,42.02866 18.11962,13.92116 -17.67768,14.4073 76.19076,58.51309 69.21256,-56.9221 -5.2255,-3.94672 m -2.4988,-1.78946 -6.2455,-4.47267"
         id="path8018"
         sodipodi:nodetypes="cccccccccccc" /><use
         id="binary_sensor.motion_s1_occupancy"
         xlink:href="#path8018"
         style="display:inline;fill:none;fill-opacity:1;stroke:#000000;stroke-opacity:1"
         x="0"
         y="0" /><use
         id="light.storage"
         xlink:href="#path8018"
         style="display:inline;fill:none;fill-opacity:1;stroke:#000000;stroke-opacity:1"
         x="0"
         y="0" /></g><g
       inkscape:groupmode="layer"
       id="area.cabinet"
       inkscape:label="Kitchen Cabinet"
       style="display:inline"><path
         id="path1161"
         style="display:inline;fill:none;stroke:#000000;stroke-linecap:butt"
         d="m 1052.5022,509.53516 h -2e-4 l -36.4922,-27.02149 -1.4825,1.49024 -0.031,7.07031 -46.26717,-35.53909 m 155.09127,-195.63375 95.2052,72.43456 -8.9512,7.07226 -0.4453,65.61719 -37.959,31.96094 m -17.5026,9.30723 -13.4421,-10.03497 -16.8776,13.86646 -70.8457,59.41016"
         sodipodi:nodetypes="ccccccccccccccc" /><use
         id="group.motion_kitchen_occupancy"
         xlink:href="#path1161"
         style="display:inline;fill:none;fill-opacity:1;stroke:#000000;stroke-opacity:1"
         x="0"
         y="0" /><use
         id="light.cabinet"
         xlink:href="#path1161"
         style="display:inline;fill:none;fill-opacity:1;stroke:#000000;stroke-opacity:1"
         x="0"
         y="0" /></g><g
       inkscape:groupmode="layer"
       id="area.counter"
       inkscape:label="Kitchen Counter"
       style="display:inline"><path
         id="path1104"
         style="display:inline;fill:none;stroke:#000000"
         d="m 968.36987,455.57026 -52.64506,-40.52143 0.23555,-28.87937 -3.66868,-2.62206 -0.28082,-2.94081 136.75624,-114.83264 0.036,-47.9804 9.213,-7.92264 65.3574,50.07085"
         sodipodi:nodetypes="ccccccccc" /><use
         id="light.counter"
         xlink:href="#path1104"
         style="display:inline;fill:none;fill-opacity:1;stroke:#000000;stroke-opacity:1"
         x="0"
         y="0" /></g><g
       inkscape:groupmode="layer"
       id="area.toilet"
       inkscape:label="Toilet Room"
       style="display:inline"><path
         style="display:inline;fill:none;fill-opacity:1;stroke:#000000;stroke-opacity:1"
         d="m 1182.7152,467.84112 c 0.6634,2.00012 13.9127,10.53242 13.9127,10.53242 l -87.9682,74.36882 -17.5661,-13.51638 -1.2946,1.36065 -0.078,5.96523 -30.697,-24.75881 -0.5103,-6.85323 -6.012,-5.40478 70.845,-59.41038 14.6695,11.32384 c 0,0 14.5979,-12.21031 15.1439,-13.52826 0.4017,-0.96957 0.095,-1.10272 0.3322,-2.10956"
         id="path8252"
         sodipodi:nodetypes="cccccccccccsc" /><use
         id="light.wc"
         xlink:href="#path8252"
         style="display:inline;fill:none;fill-opacity:1;stroke:#000000;stroke-opacity:1"
         x="0"
         y="0" /></g><g
       inkscape:groupmode="layer"
       id="area.hallway"
       inkscape:label="Hallway"
       style="display:inline"><path
         style="display:inline;fill:none;fill-opacity:1;stroke:#000000;stroke-opacity:1"
         d="m 1035.2415,531.77125 10.0268,-8.87971 0.2034,-7.14188 7.03,-6.21462 6.012,5.40478 0.5103,6.85323 30.697,24.75881 0.078,-5.96523 1.2946,-1.36065 25.5343,19.64756 -0.069,7.21012 36.0984,27.43959 0.1135,-7.48431 1.7157,-1.52505 72.1016,55.02059 -1.722,1.46574 -0.1001,8.42856 -49.6722,41.90677 L 1091.75,628 c 0,0 -1.6273,0.75464 -2,1.5 -0.7826,1.56525 0,5.25 0,5.25 l -41,-33.45711 -0.25,-6.04289 -7.75,-6 -5.397,-4.14054 m -2.6363,-1.87881 -5.9535,-4.24278"
         id="path1698"
         sodipodi:nodetypes="cccccsccccccccccccccccccccc" /><use
         id="binary_sensor.hallway_moving_target"
         xlink:href="#path1698"
         style="display:inline;fill:none;fill-opacity:1;stroke:#000000;stroke-opacity:1"
         x="0"
         y="0" /><use
         id="light.hallway"
         xlink:href="#path1698"
         style="display:inline;fill:none;fill-opacity:1;stroke:#000000;stroke-opacity:1"
         x="0"
         y="0" /></g><g
       inkscape:groupmode="layer"
       id="area.genkan"
       inkscape:label="Genkan"
       style="display:inline"><path
         style="fill:none;stroke:#000000;stroke-opacity:1"
         d="m 1260.3295,755.89716 7.1594,-5.74525 1.7678,1.23743 40.8354,-35.53211 3.932,3.02036 -0.043,-7.61656 32.1644,-27.187 -85.1545,-63.15217 -27.5027,23.88002 -6.9233,-5.22379 -1.7525,1.35941 -0.062,8.625 -49.6875,41.6875 z"
         id="path8349"
         sodipodi:nodetypes="cccccccccccccc" /><use
         id="binary_sensor.genkan_door_triggered"
         xlink:href="#path8349"
         style="display:inline;fill:none;fill-opacity:1;stroke:#000000;stroke-opacity:1"
         x="0"
         y="0" /><use
         id="light.genkan"
         xlink:href="#path8349"
         style="display:inline;fill:none;fill-opacity:1;stroke:#000000;stroke-opacity:1"
         x="0"
         y="0" /></g><g
       inkscape:groupmode="layer"
       id="area.master"
       inkscape:label="Master Room"
       style="display:inline"><path
         style="fill:none;fill-opacity:1;stroke:#000000;stroke-opacity:1;stroke-linecap:butt"
         d="m 922.94974,694.11764 21.70015,-18.81312 -0.77589,-6.3864 96.876,-79.66812 7.75,6 0.25,6.04289 41,33.45711 v -5.25 l 2,-1.5 83.3439,63.33045 85.2926,64.5179 -34.6365,29.40165 -33.25,76 -31.0771,26.16901 L 1102.5,842 1072.8107,868.17678 881.75,721.75 l 12.75,-11"
         id="path588"
         sodipodi:nodetypes="cccccccccccccccccc" /><use
         id="light.master"
         xlink:href="#path588"
         style="display:inline;fill:none;fill-opacity:1;stroke:#000000;stroke-opacity:1"
         x="0"
         y="0" /></g><g
       inkscape:groupmode="layer"
       id="area.master_closet"
       inkscape:label="Master Closet"
       style="display:inline"><path
         style="display:inline;fill:none;fill-opacity:1;stroke:#000000;stroke-opacity:1"
         d="m 922.94974,694.11764 21.63765,-18.93812 -0.71339,-6.2614 27.42517,-22.55369 -76.03639,-58.70542 -89.73844,75.98713 76.22566,58.10386 12.75,-11"
         id="path7820"
         sodipodi:nodetypes="cccccccc" /><use
         id="light.master_closet"
         xlink:href="#path7820"
         style="display:inline;fill:none;fill-opacity:1;stroke:#000000;stroke-opacity:1"
         x="0"
         y="0" /></g><g
       inkscape:groupmode="layer"
       id="area.shion"
       inkscape:label="Shion Room"
       style="display:inline"><path
         id="path1569"
         style="display:inline;fill:none;stroke:#000000;stroke-linecap:butt;stroke-opacity:1"
         d="m 1171.1486,437.04084 37.9804,-32.01472 0.4453,-65.6173 8.9506,-7.07217 212.6367,161.88623 -8.6423,7.639 1.129,67.48027 -21.7514,17.11937 31.7043,24.14955 -87.4567,73.46315 -85.1543,-63.15234 -27.5019,23.88085 -6.9238,-5.22461 -0.3106,0.24024 0.334,-0.2832 -72.1016,-55.02149 -1.7148,1.52539 -0.1133,7.48438 -36.0996,-27.43946 0.068,-7.21093 -7.9668,-6.13086 87.9668,-74.36914 c 0,0 -13.2488,-8.53114 -13.9122,-10.53125"
         sodipodi:nodetypes="ccccccccccccccccccccccc" /><use
         id="light.shion"
         xlink:href="#path1569"
         style="display:inline;fill:none;fill-opacity:1;stroke:#000000;stroke-opacity:1"
         x="0"
         y="0" /></g><g
       inkscape:groupmode="layer"
       id="area.night_light"
       inkscape:label="Night Light"
       style="display:inline"><path
         id="path1831"
         style="display:inline;fill:none;fill-opacity:1;stroke:#000000;stroke-opacity:1"
         d="m 913.72485,493.51746 -12.67367,-9.61125 -1.43946,1.50586 0.32422,5.4707 -38.02114,-30.39427 53.81066,-45.43996 98.77084,76.02606 0.031,-7.07116 1.4824,-1.48911 36.4927,27.02083 -7.0293,6.21484 -0.2051,7.14062 -10.0117,8.86719 m -57.19144,16.44531 -24.71484,-19.07226 -0.34961,-5.42969 -8.83203,-6.44726 0.041,-0.0352 -3.45898,-2.70313"
         sodipodi:nodetypes="ccccccccccccccccccc" /><use
         id="light.night_light"
         xlink:href="#path1831"
         style="display:inline;fill:none;fill-opacity:1;stroke:#000000;stroke-opacity:1"
         x="0"
         y="0" /></g><g
       inkscape:groupmode="layer"
       id="area.fan_light"
       inkscape:label="Fan Light"
       style="display:inline"><path
         id="path2729"
         style="display:inline;fill:none;stroke:#000000;stroke-linecap:butt"
         d="m 861.9148,460.4885 53.7908,-45.42419 0.25476,-28.89485 -3.66868,-2.62206 -0.28082,-2.94081 136.75624,-114.83264 0.036,-47.9804 9.3173,-7.81201 -73.51555,-55.94335 m -171.97083,280.26011 25.66648,19.64088 10.58347,-9.49558 8.71101,5.85728 0.39062,7.08744 3.97015,3.16714"
         sodipodi:nodetypes="ccccccccccccccc" /><use
         id="light.ceiling_fan_light"
         xlink:href="#path2729"
         style="display:inline;fill:none;fill-opacity:1;stroke:#000000;stroke-opacity:1"
         x="0"
         y="0" /></g></g><g
     inkscape:groupmode="layer"
     id="entities"
     inkscape:label="Entities"
     style="display:inline"><rect
       style="display:inline;opacity:1;mix-blend-mode:lighten;fill:none;fill-opacity:1;stroke:none;stroke-width:2.34331;stroke-linecap:round;stroke-linejoin:round;stroke-miterlimit:1.8;stroke-dasharray:none;stroke-opacity:1"
       id="input_select.mr_ac_mode"
       width="141.06732"
       height="147.06732"
       x="1010.3639"
       y="674.86395" /><path
       style="fill:none;stroke:#1530e6;stroke-opacity:1;fill-opacity:1"
       d="m 522.28675,296.27774 -0.0884,50.91169 81.31728,-68.58936 v -50.91169 z"
       id="cover.cr_curtain_lt_curtain"
       sodipodi:nodetypes="ccccc" /><path
       style="fill:none;stroke:#1530e6;stroke-opacity:1"
       d="m 748.75,106 0.5,50.5 -122,102.25 V 207.5 Z"
       id="cover.lr_curtain_lt_curtain" /><ellipse
       style="fill:none;stroke:#1530e6;stroke-width:0.330849;stroke-dasharray:none"
       id="light.master_lamp"
       cx="1123.9395"
       cy="785.98999"
       rx="10.090405"
       ry="9.7185335" /><path
       style="fill:none;stroke:#1530e6;stroke-width:0.94488189;stroke-linecap:butt;stroke-dasharray:none;stroke-linejoin:round"
       d="m 855.25,543.75 20.75,16.75 65.25,-55.25 -21.5,-17 z"
       id="light.sink"
       sodipodi:nodetypes="ccccc" /><text
       xml:space="preserve"
       style="font-style:normal;font-variant:normal;font-weight:normal;font-stretch:condensed;font-size:20px;font-family:Arial;-inkscape-font-specification:'Arial Condensed';letter-spacing:1px;opacity:0.5;fill:#ffffff;stroke-width:1.2;stroke-linecap:round;stroke-linejoin:round;stroke-miterlimit:1.8"
       x="762.3382"
       y="823.40887"
       id="sensor.livingroom_temperature"
       transform="skewY(-42.058286)"><tspan
         sodipodi:role="line"
         id="tspan558"
         x="762.3382"
         y="823.40887">Temp</tspan></text><text
       xml:space="preserve"
       style="font-style:normal;font-variant:normal;font-weight:normal;font-stretch:condensed;font-size:14px;font-family:Arial;-inkscape-font-specification:'Arial Condensed';letter-spacing:1px;opacity:0.5;fill:#ffffff;stroke-width:1.2;stroke-linecap:round;stroke-linejoin:round;stroke-miterlimit:1.8"
       x="470.07315"
       y="787.49774"
       id="sensor.computerroom_temperature"
       transform="skewY(-43.482535)"><tspan
         sodipodi:role="line"
         id="tspan2046"
         x="470.07315"
         y="787.49774">Temp</tspan></text><text
       xml:space="preserve"
       style="font-style:normal;font-variant:normal;font-weight:normal;font-stretch:condensed;font-size:20px;font-family:Arial;-inkscape-font-specification:'Arial Condensed';letter-spacing:1px;opacity:0.5;fill:#ffffff;stroke-width:1.2;stroke-linecap:round;stroke-linejoin:round;stroke-miterlimit:1.8"
       x="1358.4141"
       y="-562.01862"
       id="sensor.shionroom_temperature"
       transform="skewY(37.867964)"
       sodipodi:insensitive="true"><tspan
         sodipodi:role="line"
         id="tspan3746"
         x="1358.4141"
         y="-562.01862">Temp</tspan></text><text
       xml:space="preserve"
       style="font-style:normal;font-variant:normal;font-weight:normal;font-stretch:condensed;font-size:22px;font-family:Arial;-inkscape-font-specification:'Arial Condensed';letter-spacing:0.5px;opacity:0.5;fill:#ffffff;stroke-width:1.0234;stroke-linecap:round;stroke-linejoin:round;stroke-miterlimit:1.8"
       x="1148.6265"
       y="-124.63403"
       id="sensor.master_temperature"
       transform="matrix(0.88699692,0.65491386,-0.70396603,0.60762656,0,0)"><tspan
         sodipodi:role="line"
         id="tspan5905"
         x="1148.6265"
         y="-124.63403"
         style="font-size:22px;stroke-width:1.0234">Temp</tspan></text><text
       xml:space="preserve"
       style="font-style:normal;font-variant:normal;font-weight:normal;font-stretch:condensed;font-size:14px;font-family:Arial;-inkscape-font-specification:'Arial Condensed';letter-spacing:0.5px;display:inline;opacity:0.5;fill:#ffffff;stroke-width:1.0234;stroke-linecap:round;stroke-linejoin:round;stroke-miterlimit:1.8"
       x="1212.4152"
       y="-254.7446"
       id="sensor.mdf_temperature"
       transform="matrix(0.88699692,0.65491386,-0.70396603,0.60762656,0,0)"><tspan
         sodipodi:role="line"
         id="tspan2399"
         x="1212.4152"
         y="-254.7446"
         style="font-size:14px;stroke-width:1.0234">Temp</tspan></text><text
       xml:space="preserve"
       style="font-style:normal;font-variant:normal;font-weight:normal;font-stretch:condensed;font-size:22px;font-family:Arial;-inkscape-font-specification:'Arial Condensed';letter-spacing:0.5px;opacity:0.5;fill:#ffffff;stroke-width:1.0234;stroke-linecap:round;stroke-linejoin:round;stroke-miterlimit:1.8"
       x="1148.2102"
       y="-207.07179"
       id="sensor.entry_temperature"
       transform="matrix(0.88699692,0.65491386,-0.70396603,0.60762656,0,0)"
       sodipodi:insensitive="true"><tspan
         sodipodi:role="line"
         id="tspan7253"
         x="1148.2102"
         y="-207.07179"
         style="font-size:22px;stroke-width:1.0234">Temp</tspan></text><text
       xml:space="preserve"
       style="font-style:normal;font-variant:normal;font-weight:normal;font-stretch:condensed;font-size:22px;font-family:Arial;-inkscape-font-specification:'Arial Condensed';letter-spacing:0.5px;opacity:0.5;fill:#ffffff;stroke-width:1.0234;stroke-linecap:round;stroke-linejoin:round;stroke-miterlimit:1.8"
       x="1013.9284"
       y="-283.12869"
       id="sensor.wc_temperature"
       transform="matrix(0.88699692,0.65491386,-0.70396603,0.60762656,0,0)"><tspan
         sodipodi:role="line"
         id="tspan7257"
         x="1013.9284"
         y="-283.12869"
         style="font-size:22px;stroke-width:1.0234">Temp</tspan></text><text
       xml:space="preserve"
       style="font-style:normal;font-variant:normal;font-weight:normal;font-stretch:condensed;font-size:30px;font-family:Arial;-inkscape-font-specification:'Arial Condensed';letter-spacing:0.5px;opacity:0.5;fill:#ffffff;stroke-width:1.0234;stroke-linecap:round;stroke-linejoin:round;stroke-miterlimit:1.8"
       x="636.78912"
       y="-185.20744"
       id="sensor.average_house_temperature"
       transform="matrix(0.88699692,0.65491386,-0.70396603,0.60762656,0,0)"><tspan
         sodipodi:role="line"
         id="tspan7677"
         x="636.78912"
         y="-185.20744"
         style="font-size:30px;stroke-width:1.0234">Temp</tspan></text><text
       xml:space="preserve"
       style="font-style:normal;font-variant:normal;font-weight:normal;font-stretch:condensed;font-size:20px;font-family:Arial;-inkscape-font-specification:'Arial Condensed';letter-spacing:1px;opacity:0.5;fill:#ffffff;stroke-width:1.2;stroke-linecap:round;stroke-linejoin:round;stroke-miterlimit:1.8"
       x="1114.3643"
       y="-584.66644"
       id="sensor.kitchen_temperature"
       transform="skewY(37.867964)"><tspan
         sodipodi:role="line"
         id="tspan8409"
         x="1114.3643"
         y="-584.66644">Temp</tspan></text><text
       xml:space="preserve"
       style="font-style:normal;font-variant:normal;font-weight:normal;font-stretch:condensed;font-size:21.5928px;font-family:Arial;-inkscape-font-specification:'Arial Condensed';letter-spacing:0px;opacity:0.5;fill:#ffffff;stroke-width:1.00444;stroke-linecap:round;stroke-linejoin:round;stroke-miterlimit:1.8"
       x="133.12437"
       y="1419.2444"
       id="sensor.entrance_temperature"
       transform="matrix(0.75551306,-0.64584821,0.81409824,0.62767427,0,0)"><tspan
         sodipodi:role="line"
         id="tspan10753"
         x="133.12437"
         y="1419.2444"
         style="font-size:21.5928px;stroke-width:1.00444">Temp</tspan></text><text
       xml:space="preserve"
       style="font-style:normal;font-variant:normal;font-weight:normal;font-stretch:condensed;font-size:21.5928px;font-family:Arial;-inkscape-font-specification:'Arial Condensed';letter-spacing:0px;opacity:0.5;fill:#ffffff;stroke-width:1.00444;stroke-linecap:round;stroke-linejoin:round;stroke-miterlimit:1.8"
       x="132.8045"
       y="1440.4232"
       id="sensor.entrance_humidity"
       transform="matrix(0.75551306,-0.64584821,0.81409824,0.62767427,0,0)"><tspan
         sodipodi:role="line"
         id="tspan1032"
         x="132.8045"
         y="1440.4232"
         style="font-size:21.5928px;stroke-width:1.00444">Temp</tspan></text><ellipse
       style="opacity:0.5;fill:none;stroke:none;stroke-width:0.432975;stroke-linecap:round;stroke-linejoin:round;stroke-miterlimit:1.8;stroke-dasharray:none;stroke-opacity:1"
       id="sensor.gosund_washer_power"
       cx="-56.983192"
       cy="922.55548"
       rx="13.419209"
       ry="5.1839542"
       transform="matrix(0.59905041,-0.80071131,0.89994542,0.43600258,0,0)" /><path
       style="opacity:0.5;fill:none;stroke:#0714fa;stroke-width:0.377953;stroke-linecap:round;stroke-linejoin:round;stroke-miterlimit:1.8"
       d="m 492.81247,377.74998 15.8125,19.125 20.375,13.99999 23,10 -0.25,9.46967 -25.10983,-11.625 -21.625,-15.125 -12.45267,-15.96966 z"
       id="binary_sensor.desktop_status"
       sodipodi:nodetypes="ccccccccc" /><path
       style="opacity:0.5;fill:none;fill-opacity:1;stroke:none;stroke-width:0.377953;stroke-linecap:round;stroke-linejoin:round;stroke-miterlimit:1.8;stroke-opacity:1"
       d="m 838.49995,464.49997 c -7.76042,-7.96029 -26.5,-20.25 -26.5,-20.25 v 11.375 l -33.75,28 -29.875,-22.125 v -11.875 l -29.12499,24.5 47.74999,36.125 18.0625,-15.375 4.125,3 c 0,0 0.0395,4.96649 0,5.0625 -0.0395,1.65851 8.3125,9.1875 17.4375,8.0625 9.125,-1.125 -12.06171,-16.40438 -12.25,-23.375 -0.0441,-1.63391 0.47851,-6.2772 3.71813,-6.58466 1.16961,-0.111 5.15109,3.08509 5.92558,2.59254 0.79094,-0.50301 -1.88756,-4.29399 -1.23856,-5.50615 0.96803,-1.80801 4.11498,-0.92279 6.46985,-0.37673 3.32389,0.77076 5.93732,2.19925 7.83085,3.4442 3.01991,1.98552 9.05069,10.52928 9.82845,8.96386 0.56542,-1.13804 -3.23171,-4.62221 -5.10299,-7.94399 -2.86957,-5.09388 -9.49005,-17.27666 -3.30164,-16.30639 6.45818,1.01256 8.67226,2.53688 12.75508,4.43147 4.59034,2.1301 11.98485,8.76525 13.06359,7.73429 1.07874,-1.03096 0.2875,-3.51157 -0.64943,-6.47627 -1.39782,-4.42307 -4.15443,-6.05143 -5.17391,-7.09717 z"
       id="binary_sensor.washer_water_leak"
       sodipodi:nodetypes="sccccccccccssssssssssazss" /><ellipse
       style="opacity:0.5;fill:none;fill-opacity:1;stroke:none;stroke-width:0.251229;stroke-linecap:round;stroke-linejoin:round;stroke-miterlimit:1.8;stroke-opacity:1"
       id="input_select.lr_ac_mode"
       cx="758.87347"
       cy="622.81848"
       rx="13.92796"
       ry="1.6161933"
       transform="matrix(0.75552514,-0.65511966,0.33771997,0.94124663,0,0)" /><ellipse
       style="opacity:0.5;fill:none;fill-opacity:1;stroke:none;stroke-width:0.251229;stroke-linecap:round;stroke-linejoin:round;stroke-miterlimit:1.8;stroke-opacity:1"
       id="input_select.sr_ac_mode"
       cx="1235.1964"
       cy="-462.38947"
       rx="13.92796"
       ry="1.6161933"
       transform="matrix(0.8042215,0.59432969,-0.84484715,0.53500775,0,0)" /><text
       xml:space="preserve"
       style="font-style:normal;font-variant:normal;font-weight:normal;font-stretch:condensed;font-size:22px;font-family:Arial;-inkscape-font-specification:'Arial Condensed';letter-spacing:0.5px;opacity:0.5;fill:#ffffff;stroke-width:1.0234;stroke-linecap:round;stroke-linejoin:round;stroke-miterlimit:1.8"
       x="851.89728"
       y="-135.45305"
       id="sensor.washer_device_temperature"
       transform="matrix(0.88699692,0.65491386,-0.70396603,0.60762656,0,0)"><tspan
         sodipodi:role="line"
         id="tspan12672"
         x="851.89728"
         y="-135.45305"
         style="font-size:22px;stroke-width:1.0234">Temp</tspan></text><path
       style="fill:none;stroke:#080afb;stroke-width:0.75590551;stroke-linecap:round;stroke-linejoin:round;stroke-miterlimit:1.8;stroke-opacity:1;stroke-dasharray:none"
       d="m 931.96674,182.08 -39.4212,-29.69849 v -10.6066 l 15.55634,11.84404 v 1.23744 l 23.5113,16.97056 z"
       id="switch.jcom_tv" /></g></svg>
