<?xml version="1.0" encoding="UTF-8"?>
<svg id="svg5" width="1920" height="1080" version="1.1" viewBox="0 0 1920 1080" xml:space="preserve" xmlns="http://www.w3.org/2000/svg" xmlns:xlink="http://www.w3.org/1999/xlink"><g id="background"><image id="main-background" x=".5" y="-.25" width="1920" height="1080" href="/local/lovelace/floorplan/floorplan.png" preserveAspectRatio="none" xlink:href="file:///Q:/www/lovelace/floorplan/floorplan.png"/><g id="light-overlays"><image id="light_overlay.wash" width="1920" height="1080" href="/local/lovelace/floorplan/floorplan0001.png" preserveAspectRatio="none" xlink:href="file:///Q:/www/lovelace/floorplan/floorplan0001.png"/><image id="light_overlay.toilet" width="1920" height="1080" href="/local/lovelace/floorplan/floorplan0002.png" preserveAspectRatio="none" xlink:href="file:///Q:/www/lovelace/floorplan/floorplan0002.png"/><image id="light_overlay.storage" width="1920" height="1080" href="/local/lovelace/floorplan/floorplan0003.png" preserveAspectRatio="none" xlink:href="file:///Q:/www/lovelace/floorplan/floorplan0003.png"/><image id="light_overlay.shower" width="1920" height="1080" href="/local/lovelace/floorplan/floorplan0005.png" preserveAspectRatio="none" xlink:href="file:///Q:/www/lovelace/floorplan/floorplan0005.png"/><image id="light_overlay.shion" width="1920" height="1080" href="/local/lovelace/floorplan/floorplan0006.png" preserveAspectRatio="none" xlink:href="file:///Q:/www/lovelace/floorplan/floorplan0006.png"/><image id="light_overlay.night_light" width="1920" height="1080" href="/local/lovelace/floorplan/floorplan0007.png" preserveAspectRatio="none" xlink:href="file:///Q:/www/lovelace/floorplan/floorplan0007.png"/><image id="light_overlay.master_lamp" width="1920" height="1080" href="/local/lovelace/floorplan/floorplan0010.png" preserveAspectRatio="none" xlink:href="file:///Q:/www/lovelace/floorplan/floorplan0010.png"/><image id="light_overlay.master" width="1920" height="1080" href="/local/lovelace/floorplan/floorplan0008.png" preserveAspectRatio="none" xlink:href="file:///Q:/www/lovelace/floorplan/floorplan0008.png"/><image id="light_overlay.living" width="1920" height="1080" href="/local/lovelace/floorplan/floorplan0009.png" preserveAspectRatio="none" xlink:href="file:///Q:/www/lovelace/floorplan/floorplan0009.png"/><image id="light_overlay.cabinet" width="1920" height="1080" href="/local/lovelace/floorplan/floorplan0012.png" preserveAspectRatio="none" xlink:href="file:///Q:/www/lovelace/floorplan/floorplan0012.png"/><image id="light_overlay.counter" width="1920" height="1080" href="/local/lovelace/floorplan/floorplan0011.png" preserveAspectRatio="none" xlink:href="file:///Q:/www/lovelace/floorplan/floorplan0011.png"/><image id="light_overlay.genkan" width="1920" height="1080" href="/local/lovelace/floorplan/floorplan0014.png" preserveAspectRatio="none" xlink:href="file:///Q:/www/lovelace/floorplan/floorplan0014.png"/><image id="light_overlay.hallway" width="1920" height="1080" href="/local/lovelace/floorplan/floorplan0013.png" preserveAspectRatio="none" xlink:href="file:///Q:/www/lovelace/floorplan/floorplan0013.png"/><image id="light_overlay.ceiling_fan_light" width="1920" height="1080" href="/local/lovelace/floorplan/floorplan0015.png" preserveAspectRatio="none" xlink:href="file:///Q:/www/lovelace/floorplan/floorplan0015.png"/><image id="light_overlay.computer" width="1920" height="1080" href="/local/lovelace/floorplan/floorplan0016.png" preserveAspectRatio="none" xlink:href="file:///Q:/www/lovelace/floorplan/floorplan0016.png"/><image id="light_overlay.master_closet" width="1920" height="1080" href="/local/lovelace/floorplan/floorplan0017.png" preserveAspectRatio="none" xlink:href="file:///Q:/www/lovelace/floorplan/floorplan0017.png"/><image id="light_overlay.sink_all" width="1920" height="1080" href="/local/lovelace/floorplan/floorplan0004.png" preserveAspectRatio="none" xlink:href="file:///Q:/www/lovelace/floorplan/floorplan0004.png"/><image id="sensor.duc_bermuda_area" width="1920" height="1080" href="/local/lovelace/floorplan/floorplan0020.png" preserveAspectRatio="none" xlink:href="file:///Q:/www/lovelace/floorplan/floorplan0020.png"/><image id="sensor.eri_bermuda_area" width="1920" height="1080" href="/local/lovelace/floorplan/floorplan0019.png" preserveAspectRatio="none" xlink:href="file:///Q:/www/lovelace/floorplan/floorplan0019.png"/><image id="sensor.shion_tms_bermuda_area" width="1920" height="1080" href="/local/lovelace/floorplan/floorplan0018.png" preserveAspectRatio="none" xlink:href="file:///Q:/www/lovelace/floorplan/floorplan0018.png"/></g></g><g id="areas"><g id="area.computer"><path id="path001" d="m767.54 401.43-144.65-105.9-0.25-6.25-2.7404-2.0574 14.509-12.031-9.0674-5.7201v-64.491l-9.6783-7.764-158.91 135.29 9.25 7-0.5 64.75 226.39 173.57 75.114-64.003-56.893-43.09 37.091-31.845v-19.211l0.0462-1.2304z" fill="none" stroke="#000"/><path id="path2186" d="m767.54 401.43-144.65-105.9-0.25-6.25-2.7404-2.0574 14.509-12.031-9.0674-5.7201v-64.491l-9.6783-7.764-158.91 135.29 9.25 7-0.5 64.75 226.39 173.57 75.114-64.003-56.893-43.09 37.091-31.845" fill="none" stroke="#000"/><use id="binary_sensor.computerroom_window_triggered" xlink:href="#path001"/><use id="light.computer" xlink:href="#path2186"/></g><g id="area.living"><path id="path002" d="m861.91 460.49 53.791-45.424 0.25476-28.895-3.6687-2.6221-0.28082-2.9408 136.76-114.83 0.036-47.98 9.3173-7.812-73.541-55.933-165.76-125.81-203.17 169.01 9.689 7.7274v64.491l9.0674 5.7201-14.493 12.029 2.7404 2.0574 0.25 6.25 144.74 105.94 12.609-10.721 29.375 22.5 3.0091 7.875v13.173l25.666 19.641 10.583-9.4956 8.711 5.8573 0.39062 7.0874 3.9702 3.1671" fill="none" stroke="#000"/><path id="path2668" d="m767.61 401.46-144.71-105.94-0.25-6.25-2.7404-2.0574 14.493-12.029-9.0674-5.7201v-64.491l-9.689-7.7274 203.17-169.01 165.75 125.81" fill="none" stroke="#000"/><use id="binary_sensor.livingroom_window_triggered" xlink:href="#path002"/><use id="light.living" fill="none" stroke="#000000" xlink:href="#path2668"/></g><g id="area.wash"><path id="path8157" d="m885.23 567.48 9.7509-8.4226 49.232-41.836-3.4586-2.7036m-27.026-20.954-12.673-9.6541-1.4389 1.506 0.36986 5.5089-42-33.533-0.39062-7.0874-8.711-5.8573-10.583 9.4956-25.666-19.641m-65.43 4.5801-37.091 31.845 56.846 43.029 13.715-11.569 9.4603 6.7103 0.0353 6.1938 33.301 26.002-0.28277-5.573 1.3039-1.2554 23.75 18.508" fill="none" stroke="#000"/><use id="light.laundry" fill="none" stroke="#000000" xlink:href="#path8157"/></g><g id="area.shower"><path id="path7882" d="m890.52 583.95 4.7393 3.7061-89.738 75.987-113.61-85.762 88.764-75.7 9.4603 6.7103 0.0353 6.1938 33.301 26.002-0.28277-5.573 1.3039-1.2554 23.75 18.508" fill="none" stroke="#000"/><use id="light.shower" fill="none" stroke="#000000" xlink:href="#path7882"/></g><g id="area.storage" fill="none" stroke="#000000"><path id="path8018" d="m978.07 548.2-24.714-19.072-0.3508-5.4303-8.8388-6.4524-49.409 42.029 18.12 13.921-17.678 14.407 76.191 58.513 69.213-56.922-5.2255-3.9467m-2.4988-1.7895-6.2455-4.4727" fill="none" stroke="#000"/><use id="binary_sensor.motion_s1_occupancy" xlink:href="#path8018"/><use id="light.storage" xlink:href="#path8018"/></g><g id="area.cabinet" fill="none" stroke="#000000"><path id="path1161" d="m1052.5 509.54h-2e-4l-36.492-27.021-1.4825 1.4902-0.031 7.0703-46.267-35.539m155.09-195.63 95.205 72.435-8.9512 7.0723-0.4453 65.617-37.959 31.961m-17.503 9.3072-13.442-10.035-16.878 13.866-70.846 59.41" fill="none" stroke="#000"/><use id="group.motion_kitchen_occupancy" xlink:href="#path1161"/><use id="light.cabinet" xlink:href="#path1161"/></g><g id="area.counter"><path id="path1104" d="m968.37 455.57-52.645-40.521 0.23555-28.879-3.6687-2.6221-0.28082-2.9408 136.76-114.83 0.036-47.98 9.213-7.9226 65.357 50.071" fill="none" stroke="#000"/><use id="light.counter" fill="none" stroke="#000000" xlink:href="#path1104"/></g><g id="area.toilet"><path id="path8252" d="m1182.7 467.84c0.6634 2.0001 13.913 10.532 13.913 10.532l-87.968 74.369-17.566-13.516-1.2946 1.3606-0.078 5.9652-30.697-24.759-0.5103-6.8532-6.012-5.4048 70.845-59.41 14.67 11.324s14.598-12.21 15.144-13.528c0.4017-0.96957 0.095-1.1027 0.3322-2.1096" fill="none" stroke="#000"/><use id="light.wc" fill="none" stroke="#000000" xlink:href="#path8252"/></g><g id="area.hallway" fill="none" stroke="#000000"><path id="path1698" d="m1035.2 531.77 10.027-8.8797 0.2034-7.1419 7.03-6.2146 6.012 5.4048 0.5103 6.8532 30.697 24.759 0.078-5.9652 1.2946-1.3606 25.534 19.648-0.069 7.2101 36.098 27.44 0.1135-7.4843 1.7157-1.525 72.102 55.021-1.722 1.4657-0.1001 8.4286-49.672 41.907-83.344-63.336s-1.6273 0.75464-2 1.5c-0.7826 1.5652 0 5.25 0 5.25l-41-33.457-0.25-6.0429-7.75-6-5.397-4.1405m-2.6363-1.8788-5.9535-4.2428" fill="none" stroke="#000"/><use id="binary_sensor.hallway_moving_target" xlink:href="#path1698"/><use id="light.hallway" xlink:href="#path1698"/></g><g id="area.genkan" fill="none" stroke="#000000"><path id="path8349" d="m1260.3 755.9 7.1594-5.7452 1.7678 1.2374 40.835-35.532 3.932 3.0204-0.043-7.6166 32.164-27.187-85.154-63.152-27.503 23.88-6.9233-5.2238-1.7525 1.3594-0.062 8.625-49.688 41.688z" fill="none" stroke="#000"/><use id="binary_sensor.genkan_door_triggered" xlink:href="#path8349"/><use id="light.genkan" xlink:href="#path8349"/></g><g id="area.master"><path id="path588" d="m922.95 694.12 21.7-18.813-0.77589-6.3864 96.876-79.668 7.75 6 0.25 6.0429 41 33.457v-5.25l2-1.5 83.344 63.33 85.293 64.518-34.636 29.402-33.25 76-31.077 26.169-58.923-45.419-29.689 26.177-191.06-146.43 12.75-11" fill="none" stroke="#000"/><use id="light.master" fill="none" stroke="#000000" xlink:href="#path588"/></g><g id="area.master_closet"><path id="path7820" d="m922.95 694.12 21.638-18.938-0.71339-6.2614 27.425-22.554-76.036-58.705-89.738 75.987 76.226 58.104 12.75-11" fill="none" stroke="#000"/><use id="light.master_closet" fill="none" stroke="#000000" xlink:href="#path7820"/></g><g id="area.shion"><path id="path1569" d="m1171.1 437.04 37.98-32.015 0.4453-65.617 8.9506-7.0722 212.64 161.89-8.6423 7.639 1.129 67.48-21.751 17.119 31.704 24.15-87.457 73.463-85.154-63.152-27.502 23.881-6.9238-5.2246-0.3106 0.24024 0.334-0.2832-72.102-55.021-1.7148 1.5254-0.1133 7.4844-36.1-27.439 0.068-7.2109-7.9668-6.1309 87.967-74.369s-13.249-8.5311-13.912-10.531" fill="none" stroke="#000"/><use id="light.shion" fill="none" stroke="#000000" xlink:href="#path1569"/></g><g id="area.night_light"><path id="path1831" d="m913.72 493.52-12.674-9.6112-1.4395 1.5059 0.32422 5.4707-38.021-30.394 53.811-45.44 98.771 76.026 0.031-7.0712 1.4824-1.4891 36.493 27.021-7.0293 6.2148-0.2051 7.1406-10.012 8.8672m-57.191 16.445-24.715-19.072-0.34961-5.4297-8.832-6.4473 0.041-0.0352-3.459-2.7031" fill="none" stroke="#000"/><use id="light.night_light" fill="none" stroke="#000000" xlink:href="#path1831"/></g><g id="area.fan_light"><path id="path2729" d="m861.91 460.49 53.791-45.424 0.25476-28.895-3.6687-2.6221-0.28082-2.9408 136.76-114.83 0.036-47.98 9.3173-7.812-73.516-55.943m-171.97 280.26 25.666 19.641 10.583-9.4956 8.711 5.8573 0.39062 7.0874 3.9702 3.1671" fill="none" stroke="#000"/><use id="light.ceiling_fan_light" fill="none" stroke="#000000" xlink:href="#path2729"/></g></g><g id="entities"><rect id="input_select.mr_ac_mode" x="1010.4" y="674.86" width="141.07" height="147.07" fill="none" style="mix-blend-mode:lighten"/><path id="cover.cr_curtain_lt_curtain" d="m522.29 296.28-0.0884 50.912 81.317-68.589v-50.912z" fill="none" stroke="#1530e6"/><path id="cover.lr_curtain_lt_curtain" d="m748.75 106 0.5 50.5-122 102.25v-51.25z" fill="none" stroke="#1530e6"/><ellipse id="light.master_lamp" cx="1123.9" cy="785.99" rx="10.09" ry="9.7185" fill="none" stroke="#1530e6" stroke-width=".33085"/><path id="light.sink" d="m855.25 543.75 20.75 16.75 65.25-55.25-21.5-17z" fill="none" stroke="#1530e6" stroke-linejoin="round" stroke-width=".94488"/><text id="sensor.livingroom_temperature" transform="skewY(-42.058)" x="762.3382" y="823.40887" fill="#ffffff" font-family="Arial" font-size="20px" font-stretch="condensed" letter-spacing="1px" opacity=".5" stroke-linecap="round" stroke-linejoin="round" stroke-miterlimit="1.8" stroke-width="1.2" xml:space="preserve"><tspan id="tspan558" x="762.3382" y="823.40887">Temp</tspan></text><text id="sensor.bt_proxy_computer_room_temperature" transform="skewY(-43.483)" x="470.07315" y="787.49774" fill="#ffffff" font-family="Arial" font-size="14px" font-stretch="condensed" letter-spacing="1px" opacity=".5" stroke-linecap="round" stroke-linejoin="round" stroke-miterlimit="1.8" stroke-width="1.2" xml:space="preserve"><tspan id="tspan2046" x="470.07315" y="787.49774">Temp</tspan></text><text id="sensor.shionroom_temperature" transform="skewY(37.868)" x="1358.4141" y="-562.01862" fill="#ffffff" font-family="Arial" font-size="20px" font-stretch="condensed" letter-spacing="1px" opacity=".5" stroke-linecap="round" stroke-linejoin="round" stroke-miterlimit="1.8" stroke-width="1.2" xml:space="preserve"><tspan id="tspan3746" x="1358.4141" y="-562.01862">Temp</tspan></text><text id="sensor.master_temperature" transform="matrix(.887 .65491 -.70397 .60763 0 0)" x="1148.6265" y="-124.63403" fill="#ffffff" font-family="Arial" font-size="22px" font-stretch="condensed" letter-spacing=".5px" opacity=".5" stroke-linecap="round" stroke-linejoin="round" stroke-miterlimit="1.8" stroke-width="1.0234" xml:space="preserve"><tspan id="tspan5905" x="1148.6265" y="-124.63403" font-size="22px" stroke-width="1.0234">Temp</tspan></text><text id="sensor.mdf_temperature" transform="matrix(.887 .65491 -.70397 .60763 0 0)" x="1212.4152" y="-254.7446" fill="#ffffff" font-family="Arial" font-size="14px" font-stretch="condensed" letter-spacing=".5px" opacity=".5" stroke-linecap="round" stroke-linejoin="round" stroke-miterlimit="1.8" stroke-width="1.0234" xml:space="preserve"><tspan id="tspan2399" x="1212.4152" y="-254.7446" font-size="14px" stroke-width="1.0234">Temp</tspan></text><text id="sensor.entry_temperature" transform="matrix(.887 .65491 -.70397 .60763 0 0)" x="1148.2102" y="-207.07179" fill="#ffffff" font-family="Arial" font-size="22px" font-stretch="condensed" letter-spacing=".5px" opacity=".5" stroke-linecap="round" stroke-linejoin="round" stroke-miterlimit="1.8" stroke-width="1.0234" xml:space="preserve"><tspan id="tspan7253" x="1148.2102" y="-207.07179" font-size="22px" stroke-width="1.0234">Temp</tspan></text><text id="sensor.wc_temperature" transform="matrix(.887 .65491 -.70397 .60763 0 0)" x="1013.9284" y="-283.12869" fill="#ffffff" font-family="Arial" font-size="22px" font-stretch="condensed" letter-spacing=".5px" opacity=".5" stroke-linecap="round" stroke-linejoin="round" stroke-miterlimit="1.8" stroke-width="1.0234" xml:space="preserve"><tspan id="tspan7257" x="1013.9284" y="-283.12869" font-size="22px" stroke-width="1.0234">Temp</tspan></text><text id="sensor.average_house_temperature" transform="matrix(.887 .65491 -.70397 .60763 0 0)" x="636.78912" y="-185.20744" fill="#ffffff" font-family="Arial" font-size="30px" font-stretch="condensed" letter-spacing=".5px" opacity=".5" stroke-linecap="round" stroke-linejoin="round" stroke-miterlimit="1.8" stroke-width="1.0234" xml:space="preserve"><tspan id="tspan7677" x="636.78912" y="-185.20744" font-size="30px" stroke-width="1.0234">Temp</tspan></text><text id="sensor.kitchen_temperature" transform="skewY(37.868)" x="1114.3643" y="-584.66644" fill="#ffffff" font-family="Arial" font-size="20px" font-stretch="condensed" letter-spacing="1px" opacity=".5" stroke-linecap="round" stroke-linejoin="round" stroke-miterlimit="1.8" stroke-width="1.2" xml:space="preserve"><tspan id="tspan8409" x="1114.3643" y="-584.66644">Temp</tspan></text><text id="sensor.entrance_temperature" transform="matrix(.75551 -.64585 .8141 .62767 0 0)" x="133.12437" y="1419.2444" fill="#ffffff" font-family="Arial" font-size="21.593px" font-stretch="condensed" letter-spacing="0px" opacity=".5" stroke-linecap="round" stroke-linejoin="round" stroke-miterlimit="1.8" stroke-width="1.0044" xml:space="preserve"><tspan id="tspan10753" x="133.12437" y="1419.2444" font-size="21.593px" stroke-width="1.0044">Temp</tspan></text><text id="sensor.entrance_humidity" transform="matrix(.75551 -.64585 .8141 .62767 0 0)" x="132.8045" y="1440.4232" fill="#ffffff" font-family="Arial" font-size="21.593px" font-stretch="condensed" letter-spacing="0px" opacity=".5" stroke-linecap="round" stroke-linejoin="round" stroke-miterlimit="1.8" stroke-width="1.0044" xml:space="preserve"><tspan id="tspan1032" x="132.8045" y="1440.4232" font-size="21.593px" stroke-width="1.0044">Temp</tspan></text><ellipse id="sensor.gosund_washer_power" transform="matrix(.59905 -.80071 .89995 .436 0 0)" cx="-56.983" cy="922.56" rx="13.419" ry="5.184" fill="none" opacity=".5"/><path id="binary_sensor.desktop_status" d="m492.81 377.75 15.812 19.125 20.375 14 23 10-0.25 9.4697-25.11-11.625-21.625-15.125-12.453-15.97z" fill="none" opacity=".5" stroke="#0714fa" stroke-linecap="round" stroke-linejoin="round" stroke-miterlimit="1.8" stroke-width=".37795"/><path id="binary_sensor.washer_water_leak" d="m838.5 464.5c-7.7604-7.9603-26.5-20.25-26.5-20.25v11.375l-33.75 28-29.875-22.125v-11.875l-29.125 24.5 47.75 36.125 18.062-15.375 4.125 3s0.0395 4.9665 0 5.0625c-0.0395 1.6585 8.3125 9.1875 17.438 8.0625s-12.062-16.404-12.25-23.375c-0.0441-1.6339 0.47851-6.2772 3.7181-6.5847 1.1696-0.111 5.1511 3.0851 5.9256 2.5925 0.79094-0.50301-1.8876-4.294-1.2386-5.5062 0.96803-1.808 4.115-0.92279 6.4698-0.37673 3.3239 0.77076 5.9373 2.1992 7.8308 3.4442 3.0199 1.9855 9.0507 10.529 9.8284 8.9639 0.56542-1.138-3.2317-4.6222-5.103-7.944-2.8696-5.0939-9.49-17.277-3.3016-16.306 6.4582 1.0126 8.6723 2.5369 12.755 4.4315 4.5903 2.1301 11.985 8.7652 13.064 7.7343s0.2875-3.5116-0.64943-6.4763c-1.3978-4.4231-4.1544-6.0514-5.1739-7.0972z" fill="none" opacity=".5"/><ellipse id="input_select.lr_ac_mode" transform="matrix(.75553 -.65512 .33772 .94125 0 0)" cx="758.87" cy="622.82" rx="13.928" ry="1.6162" fill="none" opacity=".5"/><ellipse id="input_select.sr_ac_mode" transform="matrix(.80422 .59433 -.84485 .53501 0 0)" cx="1235.2" cy="-462.39" rx="13.928" ry="1.6162" fill="none" opacity=".5"/><text id="sensor.washer_device_temperature" transform="matrix(.887 .65491 -.70397 .60763 0 0)" x="851.89728" y="-135.45305" fill="#ffffff" font-family="Arial" font-size="22px" font-stretch="condensed" letter-spacing=".5px" opacity=".5" stroke-linecap="round" stroke-linejoin="round" stroke-miterlimit="1.8" stroke-width="1.0234" xml:space="preserve"><tspan id="tspan12672" x="851.89728" y="-135.45305" font-size="22px" stroke-width="1.0234">Temp</tspan></text><path id="switch.jcom_tv" d="m931.97 182.08-39.421-29.698v-10.607l15.556 11.844v1.2374l23.511 16.971z" fill="none" stroke="#080afb" stroke-linecap="round" stroke-linejoin="round" stroke-miterlimit="1.8" stroke-width=".75591"/></g></svg>
